<svg width="216" height="216" viewBox="0 0 216 216" fill="none" xmlns="http://www.w3.org/2000/svg">
<path d="M134.778 27.1697L143.417 11.5854C143.527 11.3855 143.598 11.1657 143.624 10.9385C143.65 10.7114 143.63 10.4814 143.567 10.2617C143.504 10.0419 143.399 9.83671 143.256 9.6578C143.114 9.47888 142.938 9.32975 142.738 9.21891C142.334 8.99507 141.858 8.94079 141.414 9.06803C140.97 9.19526 140.595 9.49359 140.372 9.89738L131.638 25.6544C124.185 22.3875 116.137 20.7008 108 20.7008C99.8634 20.7008 91.8149 22.3875 84.3628 25.6544L75.6284 9.89738C75.4046 9.49359 75.0295 9.19526 74.5857 9.06803C74.1419 8.94079 73.6657 8.99507 73.2619 9.21891C72.8581 9.44276 72.5598 9.81785 72.4326 10.2617C72.3053 10.7055 72.3596 11.1816 72.5835 11.5854L81.2221 27.1698C72.9991 31.2231 66.0512 37.4628 61.1405 45.2045C56.2299 52.9461 53.5461 61.8906 53.3837 71.057H162.617C162.454 61.8906 159.771 52.9461 154.86 45.2044C149.949 37.4628 143.001 31.2231 134.778 27.1697ZM82.792 51.0701C81.8899 51.0701 81.008 50.8026 80.2579 50.3014C79.5078 49.8002 78.9232 49.0879 78.578 48.2544C78.2328 47.421 78.1424 46.5039 78.3184 45.6191C78.4944 44.7343 78.9288 43.9216 79.5667 43.2837C80.2046 42.6458 81.0174 42.2114 81.9021 42.0354C82.7869 41.8594 83.704 41.9497 84.5375 42.2949C85.3709 42.6401 86.0833 43.2248 86.5845 43.9749C87.0857 44.7249 87.3532 45.6068 87.3532 46.5089C87.3518 47.7182 86.8708 48.8776 86.0157 49.7327C85.1607 50.5878 84.0013 51.0688 82.792 51.0701ZM133.208 51.0701C132.306 51.0701 131.424 50.8026 130.674 50.3014C129.924 49.8002 129.339 49.0879 128.994 48.2544C128.649 47.421 128.558 46.5039 128.734 45.6191C128.91 44.7343 129.345 43.9216 129.983 43.2837C130.621 42.6458 131.433 42.2114 132.318 42.0354C133.203 41.8594 134.12 41.9497 134.954 42.2949C135.787 42.6401 136.499 43.2248 137.001 43.9749C137.502 44.7249 137.769 45.6068 137.769 46.5089C137.768 47.7182 137.287 48.8776 136.432 49.7327C135.577 50.5878 134.417 51.0688 133.208 51.0701ZM53.3829 154.543C53.3829 158.045 54.774 161.404 57.2503 163.88C59.7265 166.356 63.0851 167.747 66.587 167.747H75.3494V194.756C75.3451 196.367 75.6586 197.962 76.2719 199.452C76.8853 200.941 77.7865 202.295 78.9239 203.435C80.0613 204.576 81.4126 205.481 82.9002 206.098C84.3879 206.715 85.9828 207.033 87.5935 207.033C89.2043 207.033 90.7991 206.715 92.2868 206.098C93.7745 205.481 95.1258 204.576 96.2632 203.435C97.4006 202.295 98.3018 200.941 98.9152 199.452C99.5285 197.962 99.842 196.367 99.8376 194.756V167.747H116.162V194.756C116.158 196.367 116.471 197.962 117.085 199.452C117.698 200.941 118.599 202.295 119.737 203.435C120.874 204.576 122.225 205.481 123.713 206.098C125.201 206.715 126.796 207.033 128.406 207.033C130.017 207.033 131.612 206.715 133.1 206.098C134.587 205.481 135.939 204.576 137.076 203.435C138.214 202.295 139.115 200.941 139.728 199.452C140.341 197.962 140.655 196.367 140.651 194.756V167.747H149.413C152.915 167.747 156.274 166.356 158.75 163.88C161.226 161.404 162.617 158.045 162.617 154.543V75.3779H53.3829V154.543ZM36.5773 73.2772C33.3311 73.2809 30.2189 74.5721 27.9235 76.8675C25.6281 79.1629 24.337 82.2751 24.3333 85.5213V136.537C24.3289 138.148 24.6424 139.744 25.2558 141.233C25.8691 142.723 26.7703 144.076 27.9077 145.217C29.0452 146.357 30.3964 147.262 31.8841 147.88C33.3718 148.497 34.9667 148.815 36.5774 148.815C38.1881 148.815 39.783 148.497 41.2707 147.88C42.7584 147.262 44.1096 146.357 45.247 145.217C46.3844 144.076 47.2856 142.723 47.899 141.233C48.5124 139.744 48.8259 138.148 48.8215 136.537V85.5213C48.8178 82.2751 47.5266 79.1629 45.2312 76.8674C42.9358 74.572 39.8236 73.2808 36.5773 73.2772ZM179.423 73.2772C176.176 73.2808 173.064 74.572 170.769 76.8674C168.473 79.1629 167.182 82.2751 167.179 85.5213V136.537C167.174 138.148 167.488 139.744 168.101 141.233C168.714 142.723 169.616 144.076 170.753 145.217C171.89 146.357 173.242 147.262 174.729 147.88C176.217 148.497 177.812 148.815 179.423 148.815C181.033 148.815 182.628 148.497 184.116 147.88C185.604 147.262 186.955 146.357 188.092 145.217C189.23 144.076 190.131 142.723 190.744 141.233C191.358 139.744 191.671 138.148 191.667 136.537V85.5213C191.663 82.2751 190.372 79.1629 188.076 76.8675C185.781 74.5721 182.669 73.2809 179.423 73.2772Z" fill="#D3DEFF"/>
</svg>
