<svg width="216" height="216" viewBox="0 0 216 216" fill="none" xmlns="http://www.w3.org/2000/svg">
<path d="M117.9 72H112.5V85.95H118.35C121.95 85.95 125.1 82.8 125.1 79.2C125.1 75.15 121.95 72 117.9 72ZM117.9 72H112.5V85.95H118.35C121.95 85.95 125.1 82.8 125.1 79.2C125.1 75.15 121.95 72 117.9 72ZM24.75 38.25V141.75H191.25V38.25H24.75ZM94.5 117.45H85.5V100.8H72.9V117.45H63.9V78.3C63.9 69.75 70.65 63 79.2 63C87.75 63 94.5 69.75 94.5 78.3V117.45ZM117.9 94.95H112.5V117.45H103.5V63H118.35C126.9 63 134.1 70.2 134.1 79.2C134.1 87.75 126.9 94.95 117.9 94.95ZM152.1 117.45H143.1V63.45H152.1V117.45ZM117.9 72H112.5V85.95H118.35C121.95 85.95 125.1 82.8 125.1 79.2C125.1 75.15 121.95 72 117.9 72ZM79.2 72C75.6 72 72.9 74.7 72.9 78.3V91.8H85.5V78.3C85.5 74.7 82.35 72 79.2 72ZM205.65 177.75H10.35L0 151.2H216L205.65 177.75Z" fill="#D3DEFF"/>
</svg>
