<svg width="216" height="216" viewBox="0 0 216 216" fill="none" xmlns="http://www.w3.org/2000/svg">
<rect width="216" height="216" rx="59.1781" fill="#E2E1FF"/>
<path d="M36.0736 62.0341C-4.95051 97.1155 28.3817 142.48 82.2258 140.236C92.4729 139.809 97.9928 139.582 104.981 142.48M36.0736 62.0341C49.2142 50.7971 57.9502 45.4463 74.2132 41.8425M36.0736 62.0341C17.1641 86.3922 158.505 94.1005 104.981 142.48M74.2132 41.8425C93.7638 73.5721 110.554 65.8649 146.326 86.3922M74.2132 41.8425C88.2188 38.7389 110.515 37.9778 130.942 43.7655C152.118 49.7653 171.332 62.5251 179.979 71.0081C196.356 87.077 193.24 111.405 187.97 123.57M187.97 123.57C183.196 134.589 173.239 140.236 160.748 140.236C132.601 140.236 170.043 167.799 153.056 181.901C141.704 191.327 134.715 154.809 104.981 142.48M187.97 123.57C181.844 109.486 158.997 93.6633 146.326 86.3922M104.981 142.48C158.185 147.608 171.645 101.768 146.326 86.3922" stroke="url(#paint0_linear_198_369)" stroke-width="8.97403"/>
<circle cx="31.2651" cy="65.5595" r="6.73052" fill="white" stroke="black" stroke-width="6.41002"/>
<circle cx="76.1357" cy="42.4834" r="6.73052" fill="white" stroke="black" stroke-width="6.41002"/>
<circle cx="188.312" cy="121.327" r="6.73052" fill="white" stroke="black" stroke-width="6.41002"/>
<circle cx="155.62" cy="93.1228" r="6.73052" fill="white" stroke="black" stroke-width="6.41002"/>
<circle cx="107.545" cy="143.121" r="6.73052" fill="white" stroke="black" stroke-width="6.41002"/>
<circle cx="33.1889" cy="125.814" r="6.73052" fill="white" stroke="black" stroke-width="6.41002"/>
<defs>
<linearGradient id="paint0_linear_198_369" x1="29.5895" y1="63.6164" x2="205.644" y2="142.027" gradientUnits="userSpaceOnUse">
<stop stop-color="#5454E8"/>
<stop offset="1"/>
</linearGradient>
</defs>
</svg>
