<svg width="100" height="100" viewBox="0 0 100 100" fill="none" xmlns="http://www.w3.org/2000/svg">
<path d="M25.0593 24.7439C24.7787 21.7369 25.4736 18.7195 27.0411 16.1381C28.6086 13.5568 30.9655 11.5486 33.763 10.4108C36.5605 9.27302 39.6499 9.06606 42.5742 9.82054C45.4985 10.575 48.1021 12.2509 50 14.6001M50 86.3939C48.1028 88.5495 45.5213 89.9861 42.6895 90.4623C39.8577 90.9385 36.9483 90.4252 34.4504 89.0087C31.9526 87.5922 30.0186 85.3589 28.9736 82.6842C27.9286 80.0095 27.8364 77.0566 28.7125 74.322" stroke="url(#paint0_linear_28_256)" stroke-width="6.25" stroke-miterlimit="10" stroke-linecap="round" stroke-linejoin="round"/>
<path d="M31.9875 71.8749C31.0345 72.9396 29.8507 73.7724 28.5267 74.3096C27.2026 74.8468 25.7732 75.0743 24.3477 74.9745C22.9223 74.8748 21.5385 74.4505 20.3021 73.7342C19.0657 73.0178 18.0095 72.0283 17.214 70.8413C16.4185 69.6543 15.905 68.3011 15.7125 66.8852C15.52 65.4693 15.6537 64.0281 16.1035 62.6718C16.5532 61.3155 17.307 60.0799 18.3073 59.0595C19.3076 58.0391 20.5279 57.2609 21.875 56.7843M19.2531 57.7468C15.3323 55.9205 12.2442 52.6832 10.6049 48.6806C8.96555 44.678 8.89562 40.2045 10.409 36.1526C11.9224 32.1007 14.9078 28.7684 18.7697 26.8205C22.6315 24.8726 27.0858 24.4524 31.2438 25.6436M62.5 9.45927C60.1522 9.19437 57.7754 9.52666 55.5903 10.4253C53.4051 11.324 51.4822 12.7599 50 14.5999M50 86.3936C51.8972 88.5492 54.4787 89.9859 57.3105 90.4621C60.1423 90.9383 63.0517 90.425 65.5495 89.0085C68.0474 87.592 69.9814 85.3587 71.0264 82.684C72.0713 80.0093 72.1636 77.0564 71.2875 74.3218" stroke="url(#paint1_linear_28_256)" stroke-width="6.25" stroke-miterlimit="10" stroke-linecap="round" stroke-linejoin="round"/>
<path d="M68.0125 71.875C68.9655 72.9397 70.1493 73.7725 71.4734 74.3097C72.7975 74.8469 74.2268 75.0744 75.6523 74.9746C77.0777 74.8749 78.4615 74.4506 79.6979 73.7343C80.9343 73.0179 81.9906 72.0284 82.786 70.8414C83.5815 69.6544 84.0951 68.3012 84.2875 66.8853C84.48 65.4694 84.3463 64.0282 83.8965 62.6719C83.4468 61.3156 82.693 60.08 81.6927 59.0596C80.6924 58.0392 79.4721 57.261 78.125 56.7844M80.7469 57.7469C84.4378 56.0145 87.3926 53.0264 89.0836 49.3164C90.7747 45.6063 91.0917 41.416 89.9781 37.4938M50 85.9375V15M37.5 40.625C38.9969 42.3406 41.35 43.75 43.75 43.75C46.1562 43.75 48.3531 42.8437 50.0125 41.3531M62.5 59.375C61.0531 61.1156 58.6469 62.5 56.25 62.5C53.9378 62.5034 51.7065 61.6494 49.9875 60.1031M90.625 18.75H81.25V9.375H71.875V18.75H62.5V28.125H71.875V37.5H81.25V28.125H90.625V18.75Z" stroke="url(#paint2_linear_28_256)" stroke-width="6.25" stroke-miterlimit="10" stroke-linecap="round" stroke-linejoin="round"/>
<defs>
<linearGradient id="paint0_linear_28_256" x1="37.4992" y1="9.37462" x2="37.4992" y2="90.6354" gradientUnits="userSpaceOnUse">
<stop stop-color="#5454E8"/>
<stop offset="1" stop-color="#D3DEFF"/>
</linearGradient>
<linearGradient id="paint1_linear_28_256" x1="40.603" y1="9.3708" x2="40.603" y2="90.6352" gradientUnits="userSpaceOnUse">
<stop stop-color="#5454E8"/>
<stop offset="1" stop-color="#D3DEFF"/>
</linearGradient>
<linearGradient id="paint2_linear_28_256" x1="64.0658" y1="9.375" x2="64.0658" y2="85.9375" gradientUnits="userSpaceOnUse">
<stop stop-color="#5454E8"/>
<stop offset="1" stop-color="#D3DEFF"/>
</linearGradient>
</defs>
</svg>
