<svg width="100" height="100" viewBox="0 0 100 100" fill="none" xmlns="http://www.w3.org/2000/svg">
<mask id="path-1-outside-1_29_262" maskUnits="userSpaceOnUse" x="9.27147" y="7.20522" width="81" height="86" fill="black">
<rect fill="white" x="9.27147" y="7.20522" width="81" height="86"/>
<path d="M84.0664 38.3438C85.6289 36.1191 88.1973 30.8574 84.0664 24.2559C83.2338 22.8851 82.0929 21.7275 80.7344 20.875C80.4355 19.3125 79.2617 15.5508 74.5977 12.2988C70.1172 9.17969 63.5781 9.67383 62.3906 9.79688C61.3731 9.47274 60.3183 9.27978 59.2519 9.22266C55.8984 9.06446 53.3203 9.98243 51.4824 11.9668C50.8771 12.6445 50.3773 13.4096 50 14.2363C49.6227 13.4092 49.1222 12.644 48.5156 11.9668C46.6797 9.98243 44.0508 9.06446 40.75 9.22266C39.6837 9.28075 38.6291 9.47369 37.6113 9.79688C36.4297 9.67383 29.8828 9.17969 25.3906 12.3047C20.7227 15.5586 19.5488 19.3359 19.252 20.8828C17.8984 21.7368 16.7618 22.8935 15.9316 24.2617C11.8047 30.8633 14.3809 36.125 15.9316 38.3516C14.0273 39.9805 10.4863 43.7969 11.4277 49.0274C12.0684 52.582 14.1309 55.3145 17.0293 56.5703C18.0566 57.4043 23.6172 61.377 35.8535 61.4981V71.3359H31.5176C31.1942 69.7616 30.2979 68.3634 29.0026 67.4121C27.7072 66.4607 26.1048 66.0241 24.5058 66.1866C22.9069 66.3491 21.4252 67.0993 20.3477 68.2919C19.2702 69.4844 18.6737 71.0344 18.6737 72.6416C18.6737 74.2488 19.2702 75.7988 20.3477 76.9913C21.4252 78.1839 22.9069 78.9341 24.5058 79.0966C26.1048 79.2592 27.7072 78.8225 29.0026 77.8712C30.2979 76.9198 31.1942 75.5216 31.5176 73.9473H37.1641C37.3365 73.9483 37.5075 73.9151 37.6671 73.8497C37.8267 73.7842 37.9717 73.6877 38.0938 73.5658C38.2158 73.444 38.3125 73.2991 38.3782 73.1396C38.4439 72.9801 38.4773 72.8092 38.4766 72.6367V61.4688H38.5312C38.5781 61.4688 38.6172 61.4434 38.6621 61.4375C39.0715 61.5102 39.4851 61.5571 39.9004 61.5781C44.3027 61.5781 46.9824 60.2461 48.6309 58.2852V77.9746C47.0604 78.3159 45.6725 79.2279 44.736 80.5339C43.7995 81.8399 43.381 83.447 43.5616 85.044C43.7421 86.6409 44.5089 88.114 45.7135 89.1779C46.918 90.2418 48.4745 90.8208 50.0815 90.8028C51.6885 90.7848 53.2316 90.171 54.412 89.0803C55.5923 87.9897 56.3259 86.4998 56.4707 84.8992C56.6154 83.2987 56.161 81.7013 55.1954 80.4166C54.2298 79.132 52.8218 78.2513 51.2441 77.9453V58.0996C52.8769 60.1602 55.5781 61.5781 60.1133 61.5781C60.5299 61.5572 60.9447 61.5102 61.3555 61.4375C61.4004 61.4375 61.4395 61.4668 61.4863 61.4688H61.5234V72.6367C61.5234 72.8082 61.5572 72.978 61.6229 73.1365C61.6886 73.2949 61.7849 73.4388 61.9063 73.56C62.0276 73.6811 62.1717 73.7772 62.3302 73.8427C62.4887 73.9081 62.6586 73.9417 62.8301 73.9414H68.4746C68.798 75.5157 69.6942 76.914 70.9896 77.8653C72.285 78.8166 73.8874 79.2533 75.4864 79.0908C77.0853 78.9282 78.567 78.178 79.6445 76.9855C80.7219 75.7929 81.3184 74.2429 81.3184 72.6357C81.3184 71.0286 80.7219 69.4786 79.6445 68.286C78.567 67.0935 77.0853 66.3433 75.4864 66.1807C73.8874 66.0182 72.285 66.4549 70.9896 67.4062C69.6942 68.3575 68.798 69.7558 68.4746 71.3301H64.1426V61.4922C76.3711 61.3711 81.9316 57.4023 82.9648 56.5664C85.8652 55.3125 87.9258 52.5762 88.5664 49.0215C89.5117 43.791 85.9707 39.9746 84.0664 38.3438ZM25.1621 76.5117C24.3952 76.5121 23.6453 76.285 23.0075 75.8592C22.3696 75.4333 21.8724 74.8278 21.5787 74.1193C21.285 73.4108 21.2081 72.6311 21.3576 71.8789C21.5071 71.1267 21.8764 70.4357 22.4187 69.8934C22.9611 69.351 23.652 68.9818 24.4043 68.8322C25.1565 68.6827 25.9362 68.7596 26.6447 69.0533C27.3532 69.347 27.9587 69.8442 28.3845 70.4821C28.8104 71.1199 29.0375 71.8698 29.0371 72.6367C29.0356 73.664 28.6268 74.6487 27.9004 75.375C27.1741 76.1014 26.1893 76.5102 25.1621 76.5117ZM74.8359 68.7598C75.6028 68.7594 76.3526 68.9864 76.9904 69.4122C77.6282 69.838 78.1254 70.4433 78.4192 71.1517C78.7129 71.8601 78.79 72.6397 78.6406 73.3919C78.4912 74.1441 78.1221 74.8351 77.58 75.3774C77.0379 75.9198 76.3471 76.2893 75.595 76.439C74.8429 76.5888 74.0632 76.5121 73.3547 76.2188C72.6462 75.9254 72.0405 75.4285 71.6145 74.7908C71.1884 74.1532 70.9609 73.4036 70.9609 72.6367C70.9615 71.609 71.3698 70.6235 72.0964 69.8966C72.8229 69.1697 73.8082 68.7608 74.8359 68.7598ZM77.6055 19.6211C74.6133 18.9531 71.4375 19.5234 68.9941 20.4023C69.0508 18.2949 68.7422 15.1699 66.8457 12.7305C66.7441 12.5996 66.6094 12.5059 66.502 12.3828C68.6055 12.5547 71.1504 13.0703 73.1113 14.4375C75.7051 16.252 76.9688 18.1856 77.6055 19.6211ZM26.8926 14.4414C28.8457 13.0742 31.3848 12.5664 33.498 12.3926C33.3906 12.5137 33.2578 12.6055 33.1582 12.7363C31.2598 15.1758 30.9512 18.2988 31.0098 20.4063C28.5684 19.5234 25.3906 18.9551 22.3945 19.625C23.0293 18.1875 24.293 16.2539 26.8926 14.4414ZM39.8926 58.9727C37.5645 58.9727 35.9395 58.1035 35.3184 56.5254C34.7168 54.9961 35.1641 53.0098 36.3594 51.8945C37.416 50.918 38.8223 50.7988 40.4219 51.5664C40.7342 51.7166 41.0935 51.7366 41.4206 51.622C41.7476 51.5073 42.0158 51.2674 42.166 50.9551C42.3162 50.6427 42.3362 50.2835 42.2216 49.9564C42.1069 49.6293 41.867 49.3612 41.5547 49.2109C40.7308 48.8241 39.8418 48.5949 38.9336 48.5352C39.3242 47.8424 39.5962 47.0892 39.7383 46.3066C39.7639 46.1371 39.7559 45.9642 39.7148 45.7977C39.6736 45.6313 39.6 45.4746 39.4983 45.3366C39.3965 45.1985 39.2686 45.0819 39.1218 44.9933C38.9749 44.9048 38.8121 44.846 38.6426 44.8203C38.473 44.7947 38.3001 44.8027 38.1337 44.8438C37.9672 44.885 37.8105 44.9586 37.6725 45.0603C37.5345 45.1621 37.4178 45.29 37.3293 45.4368C37.2407 45.5837 37.1819 45.7465 37.1562 45.916C36.9434 47.3203 35.3984 49.1816 34.8281 49.7813C34.8164 49.7949 34.8125 49.8125 34.7988 49.8281C34.7305 49.8867 34.6465 49.9141 34.5781 49.9766C32.6094 51.8066 31.9004 54.9609 32.8867 57.4766C33.0958 57.9568 33.3663 58.4078 33.6914 58.8184C29.0723 58.5684 25.627 57.7266 23.2051 56.8457C24.6157 56.3773 25.8767 55.5429 26.8594 54.4277C27.0707 54.1664 27.173 53.8336 27.145 53.4986C27.117 53.1637 26.9608 52.8525 26.709 52.6299C26.4572 52.4073 26.1292 52.2904 25.7933 52.3037C25.4575 52.317 25.1397 52.4594 24.9062 52.7012C24.1732 53.5359 23.2175 54.1445 22.1512 54.4558C21.0848 54.7671 19.9518 54.7682 18.8848 54.459C16.3711 53.7598 14.5508 51.5508 14.002 48.5527C13.2871 44.5879 16.2246 41.5332 17.6973 40.2793C18.4648 40.9473 19.6504 41.8555 20.9688 42.3613C21.1191 42.4187 21.2785 42.4485 21.4395 42.4492C21.7442 42.4487 22.0392 42.3416 22.2734 42.1465C22.5075 41.9515 22.6662 41.6807 22.7218 41.381C22.7774 41.0814 22.7265 40.7717 22.578 40.5056C22.4294 40.2395 22.1925 40.0337 21.9082 39.9238C20.2793 39.3008 18.75 37.6953 18.7305 37.6719C18.7109 37.6484 18.7148 37.6719 18.709 37.6563C18.7058 37.65 18.7018 37.6441 18.6973 37.6387C18.502 37.4434 13.7949 32.6016 18.1445 25.6406C22.4258 18.7891 31.5273 23.4473 31.916 23.6484C32.1347 23.7629 32.3814 23.8131 32.6274 23.7931C32.8734 23.7732 33.1088 23.684 33.3062 23.5358C33.5036 23.3876 33.6551 23.1866 33.7429 22.9559C33.8308 22.7252 33.8515 22.4744 33.8027 22.2324C33.8027 22.1836 32.8535 17.3789 35.2188 14.3379C36.416 12.8008 38.3184 11.959 40.8828 11.832C43.3516 11.6953 45.3066 12.3477 46.6016 13.7344C48.2422 15.5039 48.6328 18.1641 48.6816 19.9551C48.6513 20.0503 48.6316 20.1485 48.623 20.2481C48.623 22.6152 47.9629 24.2461 46.7148 24.9648C45.5977 25.6133 44.1152 25.4512 43.2891 24.9648C42.0059 24.2227 41.2734 23.4336 41.1719 22.6856C41.0645 21.8828 41.7012 21.2031 41.7344 21.1699C41.9776 20.9265 42.115 20.5971 42.1168 20.253C42.1185 19.9089 41.9845 19.578 41.7438 19.3322C41.5031 19.0863 41.1751 18.9453 40.8311 18.9398C40.487 18.9343 40.1547 19.0647 39.9062 19.3027C39.7422 19.4629 38.3223 20.9102 38.5762 22.9883C38.7715 24.6074 39.9219 26.0332 41.9805 27.2246C42.9169 27.7381 43.9692 28.003 45.0371 27.9941C46.0833 28.0007 47.1127 27.7312 48.0215 27.2129C48.2308 27.091 48.4318 26.9553 48.623 26.8066V39.1309C48.3358 38.8048 48.0286 38.4969 47.7031 38.209C44.9297 35.8164 40.9336 34.8027 35.7891 35.2012C34.1626 35.303 32.5838 35.7911 31.1836 36.625C31.1134 36.6041 31.0415 36.589 30.9688 36.5801C30.9355 36.5801 27.7344 36.5 25.7344 33.1758C24.6758 31.418 25.793 28.8789 25.8027 28.8516C25.8983 28.5467 25.8788 28.2174 25.748 27.9259C25.6172 27.6344 25.3842 27.401 25.0929 27.2697C24.8017 27.1383 24.4724 27.1183 24.1674 27.2133C23.8624 27.3083 23.6027 27.5117 23.4375 27.7852C23.3691 27.9395 21.7324 31.5957 23.5059 34.5391C24.6798 36.5551 26.5582 38.0655 28.7793 38.7793C26.6094 41.5137 26.0449 45.1797 26.1719 47.5469C26.1908 47.8797 26.3363 48.1927 26.5784 48.4219C26.8206 48.651 27.1412 48.7788 27.4746 48.7793H27.5391C27.7105 48.7701 27.8784 48.7271 28.0332 48.6529C28.188 48.5786 28.3266 48.4745 28.4411 48.3466C28.5556 48.2187 28.6437 48.0695 28.7004 47.9074C28.7571 47.7454 28.7812 47.5737 28.7715 47.4023C28.75 47.0371 28.3613 38.418 35.998 37.8223C47.6992 36.9141 48.582 44.5156 48.6328 44.9805V46.9629C48.6328 54.2129 48.0156 58.9668 39.8926 58.9668V58.9727ZM53.877 84.3125C53.8762 85.0791 53.6481 85.8283 53.2217 86.4654C52.7952 87.1024 52.1894 87.5987 51.4809 87.8916C50.7725 88.1844 49.993 88.2606 49.2413 88.1106C48.4895 87.9605 47.799 87.591 47.2572 87.0486C46.7154 86.5063 46.3465 85.8155 46.1973 85.0635C46.048 84.3116 46.125 83.5322 46.4185 82.8241C46.7121 82.1159 47.209 81.5106 47.8465 81.0848C48.484 80.6589 49.2334 80.4316 50 80.4316C51.0276 80.4327 52.0128 80.8412 52.7396 81.5676C53.4664 82.2941 53.8754 83.2791 53.877 84.3066V84.3125ZM85.9961 48.5703C85.457 51.5664 83.6348 53.7734 81.123 54.4746C80.0557 54.7828 78.9227 54.7812 77.8562 54.4699C76.7897 54.1587 75.8337 53.5507 75.0996 52.7168C74.8662 52.475 74.5484 52.3326 74.2126 52.3193C73.8767 52.306 73.5487 52.4229 73.2969 52.6455C73.045 52.8681 72.8889 53.1793 72.8608 53.5142C72.8328 53.8492 72.9351 54.182 73.1465 54.4434C74.13 55.5463 75.3862 56.3714 76.7891 56.8359C74.3652 57.7148 70.9199 58.5566 66.3086 58.8066C66.6335 58.397 66.9034 57.9465 67.1113 57.4668C68.0996 54.9512 67.3906 51.8027 65.4199 49.9668C65.3535 49.9043 65.2695 49.877 65.2012 49.8184C65.1875 49.8027 65.1836 49.7852 65.1699 49.7715C64.5938 49.1719 63.0547 47.3106 62.8438 45.9063C62.7879 45.5659 62.6016 45.2608 62.3245 45.0555C62.0474 44.8502 61.7012 44.7609 61.3594 44.8066C61.0167 44.8582 60.7086 45.0438 60.5028 45.3225C60.2969 45.6012 60.2102 45.9503 60.2617 46.293C60.4031 47.0754 60.6744 47.8286 61.0644 48.5215C60.1567 48.5804 59.2682 48.8096 58.4453 49.1973C58.1317 49.3465 57.8901 49.6141 57.7738 49.9414C57.6575 50.2687 57.676 50.6287 57.8252 50.9424C57.9744 51.256 58.2421 51.4976 58.5693 51.6139C58.8966 51.7302 59.2567 51.7117 59.5703 51.5625C61.168 50.7949 62.5762 50.9063 63.6309 51.8906C64.8281 53 65.2754 54.9922 64.6719 56.5215C64.0527 58.0996 62.4277 58.9688 60.0977 58.9688C51.9785 58.9688 51.3711 54.2149 51.3711 46.9649V44.9922C51.6447 43.1318 52.5785 41.4319 54.0019 40.2031C56.2285 38.2813 59.582 37.4824 63.9902 37.8223C71.5938 38.4082 71.2363 47.0391 71.2168 47.4063C71.1998 47.7511 71.3201 48.0886 71.5515 48.3449C71.7829 48.6012 72.1064 48.7553 72.4512 48.7734H72.5234C72.8566 48.773 73.177 48.645 73.4189 48.4159C73.6607 48.1867 73.8058 47.8737 73.8242 47.541C73.9551 45.1738 73.3867 41.5039 71.2148 38.7734C73.4361 38.06 75.3146 36.5495 76.4883 34.5332C78.2617 31.5898 76.625 27.9336 76.5566 27.7793C76.4119 27.4652 76.1486 27.2213 75.8244 27.1011C75.5002 26.9808 75.1415 26.994 74.827 27.1377C74.5124 27.2814 74.2677 27.5439 74.1464 27.8677C74.025 28.1915 74.037 28.5502 74.1797 28.8652C74.1914 28.8906 75.3047 31.4375 74.25 33.1856C72.2734 36.4609 69.1387 36.5859 69.0137 36.5898C68.94 36.5983 68.8674 36.614 68.7969 36.6367C67.3973 35.8012 65.8183 35.3124 64.1914 35.2109C59.0586 34.8106 55.0625 35.8262 52.2891 38.2188C51.9619 38.5068 51.6533 38.8154 51.3652 39.1426V26.8106C51.5596 26.9605 51.7631 27.0981 51.9746 27.2227C52.8834 27.741 53.9128 28.0104 54.959 28.0039C56.0275 28.0124 57.0803 27.7475 58.0176 27.2344C60.0742 26.043 61.2168 24.6172 61.4199 22.9981C61.6738 20.9199 60.248 19.4824 60.0898 19.3125C59.8412 19.0709 59.5067 18.9379 59.1601 18.9428C58.8134 18.9478 58.4829 19.0902 58.2412 19.3389C57.9996 19.5875 57.8666 19.922 57.8715 20.2687C57.8765 20.6153 58.0189 20.9459 58.2676 21.1875C58.2676 21.1875 58.9238 21.8789 58.8242 22.6777C58.7324 23.4316 58 24.2246 56.709 24.9746C55.8789 25.4531 54.3984 25.6133 53.2812 24.9746C52.0332 24.2559 51.373 22.6309 51.373 20.2578C51.3651 20.1534 51.3441 20.0504 51.3105 19.9512C51.3652 18.1934 51.7461 15.5234 53.4004 13.7461C54.6895 12.3574 56.6426 11.7051 59.1172 11.8418C61.6719 11.9668 63.5723 12.8184 64.7656 14.3379C67.127 17.3594 66.2031 22.1953 66.1934 22.2441C66.1458 22.4858 66.1675 22.736 66.2558 22.9659C66.3441 23.1958 66.4955 23.3961 66.6925 23.5438C66.8896 23.6915 67.1244 23.7806 67.3698 23.8009C67.6153 23.8211 67.8615 23.7716 68.0801 23.6582C68.4707 23.4629 77.5664 18.791 81.8516 25.6504C86.1992 32.6113 81.5 37.4453 81.3008 37.6426C81.3008 37.6426 81.3008 37.6602 81.2852 37.666C81.2695 37.6719 81.2715 37.666 81.2656 37.6816C80.8418 38.1328 79.4492 39.4121 78.0859 39.9375C77.8017 40.0474 77.5648 40.2532 77.4162 40.5193C77.2676 40.7854 77.2167 41.0951 77.2724 41.3947C77.328 41.6944 77.4866 41.9651 77.7208 42.1602C77.9549 42.3553 78.2499 42.4623 78.5547 42.4629C78.7156 42.4621 78.875 42.4324 79.0254 42.375C80.3379 41.8691 81.5293 40.9609 82.2949 40.293C83.7734 41.5371 86.7187 44.5918 85.9961 48.5586V48.5703Z"/>
</mask>
<path d="M84.0664 38.3438C85.6289 36.1191 88.1973 30.8574 84.0664 24.2559C83.2338 22.8851 82.0929 21.7275 80.7344 20.875C80.4355 19.3125 79.2617 15.5508 74.5977 12.2988C70.1172 9.17969 63.5781 9.67383 62.3906 9.79688C61.3731 9.47274 60.3183 9.27978 59.2519 9.22266C55.8984 9.06446 53.3203 9.98243 51.4824 11.9668C50.8771 12.6445 50.3773 13.4096 50 14.2363C49.6227 13.4092 49.1222 12.644 48.5156 11.9668C46.6797 9.98243 44.0508 9.06446 40.75 9.22266C39.6837 9.28075 38.6291 9.47369 37.6113 9.79688C36.4297 9.67383 29.8828 9.17969 25.3906 12.3047C20.7227 15.5586 19.5488 19.3359 19.252 20.8828C17.8984 21.7368 16.7618 22.8935 15.9316 24.2617C11.8047 30.8633 14.3809 36.125 15.9316 38.3516C14.0273 39.9805 10.4863 43.7969 11.4277 49.0274C12.0684 52.582 14.1309 55.3145 17.0293 56.5703C18.0566 57.4043 23.6172 61.377 35.8535 61.4981V71.3359H31.5176C31.1942 69.7616 30.2979 68.3634 29.0026 67.4121C27.7072 66.4607 26.1048 66.0241 24.5058 66.1866C22.9069 66.3491 21.4252 67.0993 20.3477 68.2919C19.2702 69.4844 18.6737 71.0344 18.6737 72.6416C18.6737 74.2488 19.2702 75.7988 20.3477 76.9913C21.4252 78.1839 22.9069 78.9341 24.5058 79.0966C26.1048 79.2592 27.7072 78.8225 29.0026 77.8712C30.2979 76.9198 31.1942 75.5216 31.5176 73.9473H37.1641C37.3365 73.9483 37.5075 73.9151 37.6671 73.8497C37.8267 73.7842 37.9717 73.6877 38.0938 73.5658C38.2158 73.444 38.3125 73.2991 38.3782 73.1396C38.4439 72.9801 38.4773 72.8092 38.4766 72.6367V61.4688H38.5312C38.5781 61.4688 38.6172 61.4434 38.6621 61.4375C39.0715 61.5102 39.4851 61.5571 39.9004 61.5781C44.3027 61.5781 46.9824 60.2461 48.6309 58.2852V77.9746C47.0604 78.3159 45.6725 79.2279 44.736 80.5339C43.7995 81.8399 43.381 83.447 43.5616 85.044C43.7421 86.6409 44.5089 88.114 45.7135 89.1779C46.918 90.2418 48.4745 90.8208 50.0815 90.8028C51.6885 90.7848 53.2316 90.171 54.412 89.0803C55.5923 87.9897 56.3259 86.4998 56.4707 84.8992C56.6154 83.2987 56.161 81.7013 55.1954 80.4166C54.2298 79.132 52.8218 78.2513 51.2441 77.9453V58.0996C52.8769 60.1602 55.5781 61.5781 60.1133 61.5781C60.5299 61.5572 60.9447 61.5102 61.3555 61.4375C61.4004 61.4375 61.4395 61.4668 61.4863 61.4688H61.5234V72.6367C61.5234 72.8082 61.5572 72.978 61.6229 73.1365C61.6886 73.2949 61.7849 73.4388 61.9063 73.56C62.0276 73.6811 62.1717 73.7772 62.3302 73.8427C62.4887 73.9081 62.6586 73.9417 62.8301 73.9414H68.4746C68.798 75.5157 69.6942 76.914 70.9896 77.8653C72.285 78.8166 73.8874 79.2533 75.4864 79.0908C77.0853 78.9282 78.567 78.178 79.6445 76.9855C80.7219 75.7929 81.3184 74.2429 81.3184 72.6357C81.3184 71.0286 80.7219 69.4786 79.6445 68.286C78.567 67.0935 77.0853 66.3433 75.4864 66.1807C73.8874 66.0182 72.285 66.4549 70.9896 67.4062C69.6942 68.3575 68.798 69.7558 68.4746 71.3301H64.1426V61.4922C76.3711 61.3711 81.9316 57.4023 82.9648 56.5664C85.8652 55.3125 87.9258 52.5762 88.5664 49.0215C89.5117 43.791 85.9707 39.9746 84.0664 38.3438ZM25.1621 76.5117C24.3952 76.5121 23.6453 76.285 23.0075 75.8592C22.3696 75.4333 21.8724 74.8278 21.5787 74.1193C21.285 73.4108 21.2081 72.6311 21.3576 71.8789C21.5071 71.1267 21.8764 70.4357 22.4187 69.8934C22.9611 69.351 23.652 68.9818 24.4043 68.8322C25.1565 68.6827 25.9362 68.7596 26.6447 69.0533C27.3532 69.347 27.9587 69.8442 28.3845 70.4821C28.8104 71.1199 29.0375 71.8698 29.0371 72.6367C29.0356 73.664 28.6268 74.6487 27.9004 75.375C27.1741 76.1014 26.1893 76.5102 25.1621 76.5117ZM74.8359 68.7598C75.6028 68.7594 76.3526 68.9864 76.9904 69.4122C77.6282 69.838 78.1254 70.4433 78.4192 71.1517C78.7129 71.8601 78.79 72.6397 78.6406 73.3919C78.4912 74.1441 78.1221 74.8351 77.58 75.3774C77.0379 75.9198 76.3471 76.2893 75.595 76.439C74.8429 76.5888 74.0632 76.5121 73.3547 76.2188C72.6462 75.9254 72.0405 75.4285 71.6145 74.7908C71.1884 74.1532 70.9609 73.4036 70.9609 72.6367C70.9615 71.609 71.3698 70.6235 72.0964 69.8966C72.8229 69.1697 73.8082 68.7608 74.8359 68.7598ZM77.6055 19.6211C74.6133 18.9531 71.4375 19.5234 68.9941 20.4023C69.0508 18.2949 68.7422 15.1699 66.8457 12.7305C66.7441 12.5996 66.6094 12.5059 66.502 12.3828C68.6055 12.5547 71.1504 13.0703 73.1113 14.4375C75.7051 16.252 76.9688 18.1856 77.6055 19.6211ZM26.8926 14.4414C28.8457 13.0742 31.3848 12.5664 33.498 12.3926C33.3906 12.5137 33.2578 12.6055 33.1582 12.7363C31.2598 15.1758 30.9512 18.2988 31.0098 20.4063C28.5684 19.5234 25.3906 18.9551 22.3945 19.625C23.0293 18.1875 24.293 16.2539 26.8926 14.4414ZM39.8926 58.9727C37.5645 58.9727 35.9395 58.1035 35.3184 56.5254C34.7168 54.9961 35.1641 53.0098 36.3594 51.8945C37.416 50.918 38.8223 50.7988 40.4219 51.5664C40.7342 51.7166 41.0935 51.7366 41.4206 51.622C41.7476 51.5073 42.0158 51.2674 42.166 50.9551C42.3162 50.6427 42.3362 50.2835 42.2216 49.9564C42.1069 49.6293 41.867 49.3612 41.5547 49.2109C40.7308 48.8241 39.8418 48.5949 38.9336 48.5352C39.3242 47.8424 39.5962 47.0892 39.7383 46.3066C39.7639 46.1371 39.7559 45.9642 39.7148 45.7977C39.6736 45.6313 39.6 45.4746 39.4983 45.3366C39.3965 45.1985 39.2686 45.0819 39.1218 44.9933C38.9749 44.9048 38.8121 44.846 38.6426 44.8203C38.473 44.7947 38.3001 44.8027 38.1337 44.8438C37.9672 44.885 37.8105 44.9586 37.6725 45.0603C37.5345 45.1621 37.4178 45.29 37.3293 45.4368C37.2407 45.5837 37.1819 45.7465 37.1562 45.916C36.9434 47.3203 35.3984 49.1816 34.8281 49.7813C34.8164 49.7949 34.8125 49.8125 34.7988 49.8281C34.7305 49.8867 34.6465 49.9141 34.5781 49.9766C32.6094 51.8066 31.9004 54.9609 32.8867 57.4766C33.0958 57.9568 33.3663 58.4078 33.6914 58.8184C29.0723 58.5684 25.627 57.7266 23.2051 56.8457C24.6157 56.3773 25.8767 55.5429 26.8594 54.4277C27.0707 54.1664 27.173 53.8336 27.145 53.4986C27.117 53.1637 26.9608 52.8525 26.709 52.6299C26.4572 52.4073 26.1292 52.2904 25.7933 52.3037C25.4575 52.317 25.1397 52.4594 24.9062 52.7012C24.1732 53.5359 23.2175 54.1445 22.1512 54.4558C21.0848 54.7671 19.9518 54.7682 18.8848 54.459C16.3711 53.7598 14.5508 51.5508 14.002 48.5527C13.2871 44.5879 16.2246 41.5332 17.6973 40.2793C18.4648 40.9473 19.6504 41.8555 20.9688 42.3613C21.1191 42.4187 21.2785 42.4485 21.4395 42.4492C21.7442 42.4487 22.0392 42.3416 22.2734 42.1465C22.5075 41.9515 22.6662 41.6807 22.7218 41.381C22.7774 41.0814 22.7265 40.7717 22.578 40.5056C22.4294 40.2395 22.1925 40.0337 21.9082 39.9238C20.2793 39.3008 18.75 37.6953 18.7305 37.6719C18.7109 37.6484 18.7148 37.6719 18.709 37.6563C18.7058 37.65 18.7018 37.6441 18.6973 37.6387C18.502 37.4434 13.7949 32.6016 18.1445 25.6406C22.4258 18.7891 31.5273 23.4473 31.916 23.6484C32.1347 23.7629 32.3814 23.8131 32.6274 23.7931C32.8734 23.7732 33.1088 23.684 33.3062 23.5358C33.5036 23.3876 33.6551 23.1866 33.7429 22.9559C33.8308 22.7252 33.8515 22.4744 33.8027 22.2324C33.8027 22.1836 32.8535 17.3789 35.2188 14.3379C36.416 12.8008 38.3184 11.959 40.8828 11.832C43.3516 11.6953 45.3066 12.3477 46.6016 13.7344C48.2422 15.5039 48.6328 18.1641 48.6816 19.9551C48.6513 20.0503 48.6316 20.1485 48.623 20.2481C48.623 22.6152 47.9629 24.2461 46.7148 24.9648C45.5977 25.6133 44.1152 25.4512 43.2891 24.9648C42.0059 24.2227 41.2734 23.4336 41.1719 22.6856C41.0645 21.8828 41.7012 21.2031 41.7344 21.1699C41.9776 20.9265 42.115 20.5971 42.1168 20.253C42.1185 19.9089 41.9845 19.578 41.7438 19.3322C41.5031 19.0863 41.1751 18.9453 40.8311 18.9398C40.487 18.9343 40.1547 19.0647 39.9062 19.3027C39.7422 19.4629 38.3223 20.9102 38.5762 22.9883C38.7715 24.6074 39.9219 26.0332 41.9805 27.2246C42.9169 27.7381 43.9692 28.003 45.0371 27.9941C46.0833 28.0007 47.1127 27.7312 48.0215 27.2129C48.2308 27.091 48.4318 26.9553 48.623 26.8066V39.1309C48.3358 38.8048 48.0286 38.4969 47.7031 38.209C44.9297 35.8164 40.9336 34.8027 35.7891 35.2012C34.1626 35.303 32.5838 35.7911 31.1836 36.625C31.1134 36.6041 31.0415 36.589 30.9688 36.5801C30.9355 36.5801 27.7344 36.5 25.7344 33.1758C24.6758 31.418 25.793 28.8789 25.8027 28.8516C25.8983 28.5467 25.8788 28.2174 25.748 27.9259C25.6172 27.6344 25.3842 27.401 25.0929 27.2697C24.8017 27.1383 24.4724 27.1183 24.1674 27.2133C23.8624 27.3083 23.6027 27.5117 23.4375 27.7852C23.3691 27.9395 21.7324 31.5957 23.5059 34.5391C24.6798 36.5551 26.5582 38.0655 28.7793 38.7793C26.6094 41.5137 26.0449 45.1797 26.1719 47.5469C26.1908 47.8797 26.3363 48.1927 26.5784 48.4219C26.8206 48.651 27.1412 48.7788 27.4746 48.7793H27.5391C27.7105 48.7701 27.8784 48.7271 28.0332 48.6529C28.188 48.5786 28.3266 48.4745 28.4411 48.3466C28.5556 48.2187 28.6437 48.0695 28.7004 47.9074C28.7571 47.7454 28.7812 47.5737 28.7715 47.4023C28.75 47.0371 28.3613 38.418 35.998 37.8223C47.6992 36.9141 48.582 44.5156 48.6328 44.9805V46.9629C48.6328 54.2129 48.0156 58.9668 39.8926 58.9668V58.9727ZM53.877 84.3125C53.8762 85.0791 53.6481 85.8283 53.2217 86.4654C52.7952 87.1024 52.1894 87.5987 51.4809 87.8916C50.7725 88.1844 49.993 88.2606 49.2413 88.1106C48.4895 87.9605 47.799 87.591 47.2572 87.0486C46.7154 86.5063 46.3465 85.8155 46.1973 85.0635C46.048 84.3116 46.125 83.5322 46.4185 82.8241C46.7121 82.1159 47.209 81.5106 47.8465 81.0848C48.484 80.6589 49.2334 80.4316 50 80.4316C51.0276 80.4327 52.0128 80.8412 52.7396 81.5676C53.4664 82.2941 53.8754 83.2791 53.877 84.3066V84.3125ZM85.9961 48.5703C85.457 51.5664 83.6348 53.7734 81.123 54.4746C80.0557 54.7828 78.9227 54.7812 77.8562 54.4699C76.7897 54.1587 75.8337 53.5507 75.0996 52.7168C74.8662 52.475 74.5484 52.3326 74.2126 52.3193C73.8767 52.306 73.5487 52.4229 73.2969 52.6455C73.045 52.8681 72.8889 53.1793 72.8608 53.5142C72.8328 53.8492 72.9351 54.182 73.1465 54.4434C74.13 55.5463 75.3862 56.3714 76.7891 56.8359C74.3652 57.7148 70.9199 58.5566 66.3086 58.8066C66.6335 58.397 66.9034 57.9465 67.1113 57.4668C68.0996 54.9512 67.3906 51.8027 65.4199 49.9668C65.3535 49.9043 65.2695 49.877 65.2012 49.8184C65.1875 49.8027 65.1836 49.7852 65.1699 49.7715C64.5938 49.1719 63.0547 47.3106 62.8438 45.9063C62.7879 45.5659 62.6016 45.2608 62.3245 45.0555C62.0474 44.8502 61.7012 44.7609 61.3594 44.8066C61.0167 44.8582 60.7086 45.0438 60.5028 45.3225C60.2969 45.6012 60.2102 45.9503 60.2617 46.293C60.4031 47.0754 60.6744 47.8286 61.0644 48.5215C60.1567 48.5804 59.2682 48.8096 58.4453 49.1973C58.1317 49.3465 57.8901 49.6141 57.7738 49.9414C57.6575 50.2687 57.676 50.6287 57.8252 50.9424C57.9744 51.256 58.2421 51.4976 58.5693 51.6139C58.8966 51.7302 59.2567 51.7117 59.5703 51.5625C61.168 50.7949 62.5762 50.9063 63.6309 51.8906C64.8281 53 65.2754 54.9922 64.6719 56.5215C64.0527 58.0996 62.4277 58.9688 60.0977 58.9688C51.9785 58.9688 51.3711 54.2149 51.3711 46.9649V44.9922C51.6447 43.1318 52.5785 41.4319 54.0019 40.2031C56.2285 38.2813 59.582 37.4824 63.9902 37.8223C71.5938 38.4082 71.2363 47.0391 71.2168 47.4063C71.1998 47.7511 71.3201 48.0886 71.5515 48.3449C71.7829 48.6012 72.1064 48.7553 72.4512 48.7734H72.5234C72.8566 48.773 73.177 48.645 73.4189 48.4159C73.6607 48.1867 73.8058 47.8737 73.8242 47.541C73.9551 45.1738 73.3867 41.5039 71.2148 38.7734C73.4361 38.06 75.3146 36.5495 76.4883 34.5332C78.2617 31.5898 76.625 27.9336 76.5566 27.7793C76.4119 27.4652 76.1486 27.2213 75.8244 27.1011C75.5002 26.9808 75.1415 26.994 74.827 27.1377C74.5124 27.2814 74.2677 27.5439 74.1464 27.8677C74.025 28.1915 74.037 28.5502 74.1797 28.8652C74.1914 28.8906 75.3047 31.4375 74.25 33.1856C72.2734 36.4609 69.1387 36.5859 69.0137 36.5898C68.94 36.5983 68.8674 36.614 68.7969 36.6367C67.3973 35.8012 65.8183 35.3124 64.1914 35.2109C59.0586 34.8106 55.0625 35.8262 52.2891 38.2188C51.9619 38.5068 51.6533 38.8154 51.3652 39.1426V26.8106C51.5596 26.9605 51.7631 27.0981 51.9746 27.2227C52.8834 27.741 53.9128 28.0104 54.959 28.0039C56.0275 28.0124 57.0803 27.7475 58.0176 27.2344C60.0742 26.043 61.2168 24.6172 61.4199 22.9981C61.6738 20.9199 60.248 19.4824 60.0898 19.3125C59.8412 19.0709 59.5067 18.9379 59.1601 18.9428C58.8134 18.9478 58.4829 19.0902 58.2412 19.3389C57.9996 19.5875 57.8666 19.922 57.8715 20.2687C57.8765 20.6153 58.0189 20.9459 58.2676 21.1875C58.2676 21.1875 58.9238 21.8789 58.8242 22.6777C58.7324 23.4316 58 24.2246 56.709 24.9746C55.8789 25.4531 54.3984 25.6133 53.2812 24.9746C52.0332 24.2559 51.373 22.6309 51.373 20.2578C51.3651 20.1534 51.3441 20.0504 51.3105 19.9512C51.3652 18.1934 51.7461 15.5234 53.4004 13.7461C54.6895 12.3574 56.6426 11.7051 59.1172 11.8418C61.6719 11.9668 63.5723 12.8184 64.7656 14.3379C67.127 17.3594 66.2031 22.1953 66.1934 22.2441C66.1458 22.4858 66.1675 22.736 66.2558 22.9659C66.3441 23.1958 66.4955 23.3961 66.6925 23.5438C66.8896 23.6915 67.1244 23.7806 67.3698 23.8009C67.6153 23.8211 67.8615 23.7716 68.0801 23.6582C68.4707 23.4629 77.5664 18.791 81.8516 25.6504C86.1992 32.6113 81.5 37.4453 81.3008 37.6426C81.3008 37.6426 81.3008 37.6602 81.2852 37.666C81.2695 37.6719 81.2715 37.666 81.2656 37.6816C80.8418 38.1328 79.4492 39.4121 78.0859 39.9375C77.8017 40.0474 77.5648 40.2532 77.4162 40.5193C77.2676 40.7854 77.2167 41.0951 77.2724 41.3947C77.328 41.6944 77.4866 41.9651 77.7208 42.1602C77.9549 42.3553 78.2499 42.4623 78.5547 42.4629C78.7156 42.4621 78.875 42.4324 79.0254 42.375C80.3379 41.8691 81.5293 40.9609 82.2949 40.293C83.7734 41.5371 86.7187 44.5918 85.9961 48.5586V48.5703Z" fill="url(#paint0_linear_29_262)"/>
<path d="M84.0664 38.3438C85.6289 36.1191 88.1973 30.8574 84.0664 24.2559C83.2338 22.8851 82.0929 21.7275 80.7344 20.875C80.4355 19.3125 79.2617 15.5508 74.5977 12.2988C70.1172 9.17969 63.5781 9.67383 62.3906 9.79688C61.3731 9.47274 60.3183 9.27978 59.2519 9.22266C55.8984 9.06446 53.3203 9.98243 51.4824 11.9668C50.8771 12.6445 50.3773 13.4096 50 14.2363C49.6227 13.4092 49.1222 12.644 48.5156 11.9668C46.6797 9.98243 44.0508 9.06446 40.75 9.22266C39.6837 9.28075 38.6291 9.47369 37.6113 9.79688C36.4297 9.67383 29.8828 9.17969 25.3906 12.3047C20.7227 15.5586 19.5488 19.3359 19.252 20.8828C17.8984 21.7368 16.7618 22.8935 15.9316 24.2617C11.8047 30.8633 14.3809 36.125 15.9316 38.3516C14.0273 39.9805 10.4863 43.7969 11.4277 49.0274C12.0684 52.582 14.1309 55.3145 17.0293 56.5703C18.0566 57.4043 23.6172 61.377 35.8535 61.4981V71.3359H31.5176C31.1942 69.7616 30.2979 68.3634 29.0026 67.4121C27.7072 66.4607 26.1048 66.0241 24.5058 66.1866C22.9069 66.3491 21.4252 67.0993 20.3477 68.2919C19.2702 69.4844 18.6737 71.0344 18.6737 72.6416C18.6737 74.2488 19.2702 75.7988 20.3477 76.9913C21.4252 78.1839 22.9069 78.9341 24.5058 79.0966C26.1048 79.2592 27.7072 78.8225 29.0026 77.8712C30.2979 76.9198 31.1942 75.5216 31.5176 73.9473H37.1641C37.3365 73.9483 37.5075 73.9151 37.6671 73.8497C37.8267 73.7842 37.9717 73.6877 38.0938 73.5658C38.2158 73.444 38.3125 73.2991 38.3782 73.1396C38.4439 72.9801 38.4773 72.8092 38.4766 72.6367V61.4688H38.5312C38.5781 61.4688 38.6172 61.4434 38.6621 61.4375C39.0715 61.5102 39.4851 61.5571 39.9004 61.5781C44.3027 61.5781 46.9824 60.2461 48.6309 58.2852V77.9746C47.0604 78.3159 45.6725 79.2279 44.736 80.5339C43.7995 81.8399 43.381 83.447 43.5616 85.044C43.7421 86.6409 44.5089 88.114 45.7135 89.1779C46.918 90.2418 48.4745 90.8208 50.0815 90.8028C51.6885 90.7848 53.2316 90.171 54.412 89.0803C55.5923 87.9897 56.3259 86.4998 56.4707 84.8992C56.6154 83.2987 56.161 81.7013 55.1954 80.4166C54.2298 79.132 52.8218 78.2513 51.2441 77.9453V58.0996C52.8769 60.1602 55.5781 61.5781 60.1133 61.5781C60.5299 61.5572 60.9447 61.5102 61.3555 61.4375C61.4004 61.4375 61.4395 61.4668 61.4863 61.4688H61.5234V72.6367C61.5234 72.8082 61.5572 72.978 61.6229 73.1365C61.6886 73.2949 61.7849 73.4388 61.9063 73.56C62.0276 73.6811 62.1717 73.7772 62.3302 73.8427C62.4887 73.9081 62.6586 73.9417 62.8301 73.9414H68.4746C68.798 75.5157 69.6942 76.914 70.9896 77.8653C72.285 78.8166 73.8874 79.2533 75.4864 79.0908C77.0853 78.9282 78.567 78.178 79.6445 76.9855C80.7219 75.7929 81.3184 74.2429 81.3184 72.6357C81.3184 71.0286 80.7219 69.4786 79.6445 68.286C78.567 67.0935 77.0853 66.3433 75.4864 66.1807C73.8874 66.0182 72.285 66.4549 70.9896 67.4062C69.6942 68.3575 68.798 69.7558 68.4746 71.3301H64.1426V61.4922C76.3711 61.3711 81.9316 57.4023 82.9648 56.5664C85.8652 55.3125 87.9258 52.5762 88.5664 49.0215C89.5117 43.791 85.9707 39.9746 84.0664 38.3438ZM25.1621 76.5117C24.3952 76.5121 23.6453 76.285 23.0075 75.8592C22.3696 75.4333 21.8724 74.8278 21.5787 74.1193C21.285 73.4108 21.2081 72.6311 21.3576 71.8789C21.5071 71.1267 21.8764 70.4357 22.4187 69.8934C22.9611 69.351 23.652 68.9818 24.4043 68.8322C25.1565 68.6827 25.9362 68.7596 26.6447 69.0533C27.3532 69.347 27.9587 69.8442 28.3845 70.4821C28.8104 71.1199 29.0375 71.8698 29.0371 72.6367C29.0356 73.664 28.6268 74.6487 27.9004 75.375C27.1741 76.1014 26.1893 76.5102 25.1621 76.5117ZM74.8359 68.7598C75.6028 68.7594 76.3526 68.9864 76.9904 69.4122C77.6282 69.838 78.1254 70.4433 78.4192 71.1517C78.7129 71.8601 78.79 72.6397 78.6406 73.3919C78.4912 74.1441 78.1221 74.8351 77.58 75.3774C77.0379 75.9198 76.3471 76.2893 75.595 76.439C74.8429 76.5888 74.0632 76.5121 73.3547 76.2188C72.6462 75.9254 72.0405 75.4285 71.6145 74.7908C71.1884 74.1532 70.9609 73.4036 70.9609 72.6367C70.9615 71.609 71.3698 70.6235 72.0964 69.8966C72.8229 69.1697 73.8082 68.7608 74.8359 68.7598ZM77.6055 19.6211C74.6133 18.9531 71.4375 19.5234 68.9941 20.4023C69.0508 18.2949 68.7422 15.1699 66.8457 12.7305C66.7441 12.5996 66.6094 12.5059 66.502 12.3828C68.6055 12.5547 71.1504 13.0703 73.1113 14.4375C75.7051 16.252 76.9688 18.1856 77.6055 19.6211ZM26.8926 14.4414C28.8457 13.0742 31.3848 12.5664 33.498 12.3926C33.3906 12.5137 33.2578 12.6055 33.1582 12.7363C31.2598 15.1758 30.9512 18.2988 31.0098 20.4063C28.5684 19.5234 25.3906 18.9551 22.3945 19.625C23.0293 18.1875 24.293 16.2539 26.8926 14.4414ZM39.8926 58.9727C37.5645 58.9727 35.9395 58.1035 35.3184 56.5254C34.7168 54.9961 35.1641 53.0098 36.3594 51.8945C37.416 50.918 38.8223 50.7988 40.4219 51.5664C40.7342 51.7166 41.0935 51.7366 41.4206 51.622C41.7476 51.5073 42.0158 51.2674 42.166 50.9551C42.3162 50.6427 42.3362 50.2835 42.2216 49.9564C42.1069 49.6293 41.867 49.3612 41.5547 49.2109C40.7308 48.8241 39.8418 48.5949 38.9336 48.5352C39.3242 47.8424 39.5962 47.0892 39.7383 46.3066C39.7639 46.1371 39.7559 45.9642 39.7148 45.7977C39.6736 45.6313 39.6 45.4746 39.4983 45.3366C39.3965 45.1985 39.2686 45.0819 39.1218 44.9933C38.9749 44.9048 38.8121 44.846 38.6426 44.8203C38.473 44.7947 38.3001 44.8027 38.1337 44.8438C37.9672 44.885 37.8105 44.9586 37.6725 45.0603C37.5345 45.1621 37.4178 45.29 37.3293 45.4368C37.2407 45.5837 37.1819 45.7465 37.1562 45.916C36.9434 47.3203 35.3984 49.1816 34.8281 49.7813C34.8164 49.7949 34.8125 49.8125 34.7988 49.8281C34.7305 49.8867 34.6465 49.9141 34.5781 49.9766C32.6094 51.8066 31.9004 54.9609 32.8867 57.4766C33.0958 57.9568 33.3663 58.4078 33.6914 58.8184C29.0723 58.5684 25.627 57.7266 23.2051 56.8457C24.6157 56.3773 25.8767 55.5429 26.8594 54.4277C27.0707 54.1664 27.173 53.8336 27.145 53.4986C27.117 53.1637 26.9608 52.8525 26.709 52.6299C26.4572 52.4073 26.1292 52.2904 25.7933 52.3037C25.4575 52.317 25.1397 52.4594 24.9062 52.7012C24.1732 53.5359 23.2175 54.1445 22.1512 54.4558C21.0848 54.7671 19.9518 54.7682 18.8848 54.459C16.3711 53.7598 14.5508 51.5508 14.002 48.5527C13.2871 44.5879 16.2246 41.5332 17.6973 40.2793C18.4648 40.9473 19.6504 41.8555 20.9688 42.3613C21.1191 42.4187 21.2785 42.4485 21.4395 42.4492C21.7442 42.4487 22.0392 42.3416 22.2734 42.1465C22.5075 41.9515 22.6662 41.6807 22.7218 41.381C22.7774 41.0814 22.7265 40.7717 22.578 40.5056C22.4294 40.2395 22.1925 40.0337 21.9082 39.9238C20.2793 39.3008 18.75 37.6953 18.7305 37.6719C18.7109 37.6484 18.7148 37.6719 18.709 37.6563C18.7058 37.65 18.7018 37.6441 18.6973 37.6387C18.502 37.4434 13.7949 32.6016 18.1445 25.6406C22.4258 18.7891 31.5273 23.4473 31.916 23.6484C32.1347 23.7629 32.3814 23.8131 32.6274 23.7931C32.8734 23.7732 33.1088 23.684 33.3062 23.5358C33.5036 23.3876 33.6551 23.1866 33.7429 22.9559C33.8308 22.7252 33.8515 22.4744 33.8027 22.2324C33.8027 22.1836 32.8535 17.3789 35.2188 14.3379C36.416 12.8008 38.3184 11.959 40.8828 11.832C43.3516 11.6953 45.3066 12.3477 46.6016 13.7344C48.2422 15.5039 48.6328 18.1641 48.6816 19.9551C48.6513 20.0503 48.6316 20.1485 48.623 20.2481C48.623 22.6152 47.9629 24.2461 46.7148 24.9648C45.5977 25.6133 44.1152 25.4512 43.2891 24.9648C42.0059 24.2227 41.2734 23.4336 41.1719 22.6856C41.0645 21.8828 41.7012 21.2031 41.7344 21.1699C41.9776 20.9265 42.115 20.5971 42.1168 20.253C42.1185 19.9089 41.9845 19.578 41.7438 19.3322C41.5031 19.0863 41.1751 18.9453 40.8311 18.9398C40.487 18.9343 40.1547 19.0647 39.9062 19.3027C39.7422 19.4629 38.3223 20.9102 38.5762 22.9883C38.7715 24.6074 39.9219 26.0332 41.9805 27.2246C42.9169 27.7381 43.9692 28.003 45.0371 27.9941C46.0833 28.0007 47.1127 27.7312 48.0215 27.2129C48.2308 27.091 48.4318 26.9553 48.623 26.8066V39.1309C48.3358 38.8048 48.0286 38.4969 47.7031 38.209C44.9297 35.8164 40.9336 34.8027 35.7891 35.2012C34.1626 35.303 32.5838 35.7911 31.1836 36.625C31.1134 36.6041 31.0415 36.589 30.9688 36.5801C30.9355 36.5801 27.7344 36.5 25.7344 33.1758C24.6758 31.418 25.793 28.8789 25.8027 28.8516C25.8983 28.5467 25.8788 28.2174 25.748 27.9259C25.6172 27.6344 25.3842 27.401 25.0929 27.2697C24.8017 27.1383 24.4724 27.1183 24.1674 27.2133C23.8624 27.3083 23.6027 27.5117 23.4375 27.7852C23.3691 27.9395 21.7324 31.5957 23.5059 34.5391C24.6798 36.5551 26.5582 38.0655 28.7793 38.7793C26.6094 41.5137 26.0449 45.1797 26.1719 47.5469C26.1908 47.8797 26.3363 48.1927 26.5784 48.4219C26.8206 48.651 27.1412 48.7788 27.4746 48.7793H27.5391C27.7105 48.7701 27.8784 48.7271 28.0332 48.6529C28.188 48.5786 28.3266 48.4745 28.4411 48.3466C28.5556 48.2187 28.6437 48.0695 28.7004 47.9074C28.7571 47.7454 28.7812 47.5737 28.7715 47.4023C28.75 47.0371 28.3613 38.418 35.998 37.8223C47.6992 36.9141 48.582 44.5156 48.6328 44.9805V46.9629C48.6328 54.2129 48.0156 58.9668 39.8926 58.9668V58.9727ZM53.877 84.3125C53.8762 85.0791 53.6481 85.8283 53.2217 86.4654C52.7952 87.1024 52.1894 87.5987 51.4809 87.8916C50.7725 88.1844 49.993 88.2606 49.2413 88.1106C48.4895 87.9605 47.799 87.591 47.2572 87.0486C46.7154 86.5063 46.3465 85.8155 46.1973 85.0635C46.048 84.3116 46.125 83.5322 46.4185 82.8241C46.7121 82.1159 47.209 81.5106 47.8465 81.0848C48.484 80.6589 49.2334 80.4316 50 80.4316C51.0276 80.4327 52.0128 80.8412 52.7396 81.5676C53.4664 82.2941 53.8754 83.2791 53.877 84.3066V84.3125ZM85.9961 48.5703C85.457 51.5664 83.6348 53.7734 81.123 54.4746C80.0557 54.7828 78.9227 54.7812 77.8562 54.4699C76.7897 54.1587 75.8337 53.5507 75.0996 52.7168C74.8662 52.475 74.5484 52.3326 74.2126 52.3193C73.8767 52.306 73.5487 52.4229 73.2969 52.6455C73.045 52.8681 72.8889 53.1793 72.8608 53.5142C72.8328 53.8492 72.9351 54.182 73.1465 54.4434C74.13 55.5463 75.3862 56.3714 76.7891 56.8359C74.3652 57.7148 70.9199 58.5566 66.3086 58.8066C66.6335 58.397 66.9034 57.9465 67.1113 57.4668C68.0996 54.9512 67.3906 51.8027 65.4199 49.9668C65.3535 49.9043 65.2695 49.877 65.2012 49.8184C65.1875 49.8027 65.1836 49.7852 65.1699 49.7715C64.5938 49.1719 63.0547 47.3106 62.8438 45.9063C62.7879 45.5659 62.6016 45.2608 62.3245 45.0555C62.0474 44.8502 61.7012 44.7609 61.3594 44.8066C61.0167 44.8582 60.7086 45.0438 60.5028 45.3225C60.2969 45.6012 60.2102 45.9503 60.2617 46.293C60.4031 47.0754 60.6744 47.8286 61.0644 48.5215C60.1567 48.5804 59.2682 48.8096 58.4453 49.1973C58.1317 49.3465 57.8901 49.6141 57.7738 49.9414C57.6575 50.2687 57.676 50.6287 57.8252 50.9424C57.9744 51.256 58.2421 51.4976 58.5693 51.6139C58.8966 51.7302 59.2567 51.7117 59.5703 51.5625C61.168 50.7949 62.5762 50.9063 63.6309 51.8906C64.8281 53 65.2754 54.9922 64.6719 56.5215C64.0527 58.0996 62.4277 58.9688 60.0977 58.9688C51.9785 58.9688 51.3711 54.2149 51.3711 46.9649V44.9922C51.6447 43.1318 52.5785 41.4319 54.0019 40.2031C56.2285 38.2813 59.582 37.4824 63.9902 37.8223C71.5938 38.4082 71.2363 47.0391 71.2168 47.4063C71.1998 47.7511 71.3201 48.0886 71.5515 48.3449C71.7829 48.6012 72.1064 48.7553 72.4512 48.7734H72.5234C72.8566 48.773 73.177 48.645 73.4189 48.4159C73.6607 48.1867 73.8058 47.8737 73.8242 47.541C73.9551 45.1738 73.3867 41.5039 71.2148 38.7734C73.4361 38.06 75.3146 36.5495 76.4883 34.5332C78.2617 31.5898 76.625 27.9336 76.5566 27.7793C76.4119 27.4652 76.1486 27.2213 75.8244 27.1011C75.5002 26.9808 75.1415 26.994 74.827 27.1377C74.5124 27.2814 74.2677 27.5439 74.1464 27.8677C74.025 28.1915 74.037 28.5502 74.1797 28.8652C74.1914 28.8906 75.3047 31.4375 74.25 33.1856C72.2734 36.4609 69.1387 36.5859 69.0137 36.5898C68.94 36.5983 68.8674 36.614 68.7969 36.6367C67.3973 35.8012 65.8183 35.3124 64.1914 35.2109C59.0586 34.8106 55.0625 35.8262 52.2891 38.2188C51.9619 38.5068 51.6533 38.8154 51.3652 39.1426V26.8106C51.5596 26.9605 51.7631 27.0981 51.9746 27.2227C52.8834 27.741 53.9128 28.0104 54.959 28.0039C56.0275 28.0124 57.0803 27.7475 58.0176 27.2344C60.0742 26.043 61.2168 24.6172 61.4199 22.9981C61.6738 20.9199 60.248 19.4824 60.0898 19.3125C59.8412 19.0709 59.5067 18.9379 59.1601 18.9428C58.8134 18.9478 58.4829 19.0902 58.2412 19.3389C57.9996 19.5875 57.8666 19.922 57.8715 20.2687C57.8765 20.6153 58.0189 20.9459 58.2676 21.1875C58.2676 21.1875 58.9238 21.8789 58.8242 22.6777C58.7324 23.4316 58 24.2246 56.709 24.9746C55.8789 25.4531 54.3984 25.6133 53.2812 24.9746C52.0332 24.2559 51.373 22.6309 51.373 20.2578C51.3651 20.1534 51.3441 20.0504 51.3105 19.9512C51.3652 18.1934 51.7461 15.5234 53.4004 13.7461C54.6895 12.3574 56.6426 11.7051 59.1172 11.8418C61.6719 11.9668 63.5723 12.8184 64.7656 14.3379C67.127 17.3594 66.2031 22.1953 66.1934 22.2441C66.1458 22.4858 66.1675 22.736 66.2558 22.9659C66.3441 23.1958 66.4955 23.3961 66.6925 23.5438C66.8896 23.6915 67.1244 23.7806 67.3698 23.8009C67.6153 23.8211 67.8615 23.7716 68.0801 23.6582C68.4707 23.4629 77.5664 18.791 81.8516 25.6504C86.1992 32.6113 81.5 37.4453 81.3008 37.6426C81.3008 37.6426 81.3008 37.6602 81.2852 37.666C81.2695 37.6719 81.2715 37.666 81.2656 37.6816C80.8418 38.1328 79.4492 39.4121 78.0859 39.9375C77.8017 40.0474 77.5648 40.2532 77.4162 40.5193C77.2676 40.7854 77.2167 41.0951 77.2724 41.3947C77.328 41.6944 77.4866 41.9651 77.7208 42.1602C77.9549 42.3553 78.2499 42.4623 78.5547 42.4629C78.7156 42.4621 78.875 42.4324 79.0254 42.375C80.3379 41.8691 81.5293 40.9609 82.2949 40.293C83.7734 41.5371 86.7187 44.5918 85.9961 48.5586V48.5703Z" stroke="url(#paint1_linear_29_262)" stroke-width="3" mask="url(#path-1-outside-1_29_262)"/>
<defs>
<linearGradient id="paint0_linear_29_262" x1="49.9977" y1="9.20522" x2="49.9977" y2="90.8032" gradientUnits="userSpaceOnUse">
<stop stop-color="#5454E8"/>
<stop offset="1" stop-color="#D3DEFF"/>
</linearGradient>
<linearGradient id="paint1_linear_29_262" x1="49.9977" y1="9.20522" x2="49.9977" y2="90.8032" gradientUnits="userSpaceOnUse">
<stop stop-color="#5454E8"/>
<stop offset="1" stop-color="#D3DEFF"/>
</linearGradient>
</defs>
</svg>
