<svg width="100" height="100" viewBox="0 0 100 100" fill="none" xmlns="http://www.w3.org/2000/svg">
<mask id="path-1-outside-1_29_260" maskUnits="userSpaceOnUse" x="5.38919" y="4.32227" width="89" height="91" fill="black">
<rect fill="white" x="5.38919" y="4.32227" width="89" height="91"/>
<path d="M90.2676 64.4941C93.6641 53.3613 93.4863 40.4492 89.0547 29.75C82.7988 14.6484 69.6133 6.32227 51.9316 6.32227C39.4531 6.32227 29.9473 9.96094 23.7109 17.1484C14.209 28.0859 15.5078 43.4219 15.8145 46.0332L7.77148 65.5645C7.4452 66.3287 7.32467 67.165 7.42187 67.9902C7.53999 68.9182 7.93802 69.7882 8.56294 70.4843C9.18786 71.1804 10.01 71.6696 10.9199 71.8867L17.5996 73.4766L21.3281 84.793C21.8451 86.3458 22.9334 87.6438 24.3723 88.4237C25.8112 89.2035 27.4929 89.4068 29.0762 88.9922L45.0469 84.7656V92.2812C45.0469 92.9492 45.5019 93.582 46.1641 93.6738C46.3495 93.7007 46.5386 93.6874 46.7185 93.6348C46.8984 93.5821 47.0649 93.4914 47.2066 93.3688C47.3483 93.2461 47.462 93.0944 47.5399 92.924C47.6178 92.7535 47.6582 92.5683 47.6582 92.3809V83.0566C47.6577 82.8567 47.6115 82.6594 47.5232 82.48C47.4348 82.3006 47.3066 82.1438 47.1484 82.0215C46.9905 81.8984 46.8061 81.8138 46.6098 81.7745C46.4135 81.7351 46.2107 81.7421 46.0176 81.7949L28.4023 86.4668C27.4637 86.7178 26.4646 86.6006 25.6095 86.1391C24.7544 85.6776 24.1081 84.9068 23.8027 83.9844L19.8457 71.9746C19.7763 71.7629 19.6539 71.5724 19.4902 71.4213C19.3264 71.2702 19.1268 71.1635 18.9102 71.1113L11.5215 69.3535C11.2423 69.287 10.9809 69.1608 10.7551 68.9836C10.5293 68.8064 10.3446 68.5824 10.2136 68.3271C10.0825 68.0717 10.0084 67.7911 9.99611 67.5043C9.98386 67.2176 10.0338 66.9316 10.1426 66.666L18.2266 47.0371C19.4805 46.0996 25.8047 41.75 33.9414 42.5762C40.4023 43.2266 46.4414 46.9531 51.8887 53.6484C53.2497 55.3229 54.7315 56.8955 56.3223 58.3535C56.3603 58.3931 56.4007 58.4303 56.4434 58.4648C64.2578 65.5664 72.4102 67.3828 78.6738 67.3828C81.4544 67.3863 84.224 67.0318 86.9141 66.3281C84.9473 71.6426 82.0938 76.416 78.4121 80.1016C78.289 80.2232 78.1911 80.3679 78.1241 80.5275C78.0571 80.687 78.0222 80.8582 78.0215 81.0312V92.2715C78.0215 92.9395 78.4766 93.5723 79.1406 93.6641C79.3261 93.691 79.5152 93.6776 79.6951 93.625C79.875 93.5724 80.0414 93.4816 80.1831 93.359C80.3249 93.2364 80.4386 93.0847 80.5165 92.9142C80.5944 92.7437 80.6347 92.5585 80.6348 92.3711V81.5664C84.9121 77.1445 88.1074 71.332 90.125 64.918C90.1975 64.7864 90.2458 64.6428 90.2676 64.4941ZM60.8965 58.7891H74.2539C74.5722 60.0336 75.3338 61.1191 76.3957 61.8419C77.4576 62.5647 78.7469 62.875 80.0214 62.7146C81.2959 62.5542 82.468 61.9341 83.3177 60.9707C84.1675 60.0074 84.6363 58.767 84.6363 57.4824C84.6363 56.1979 84.1675 54.9575 83.3177 53.9941C82.468 53.0307 81.2959 52.4107 80.0214 52.2503C78.7469 52.0899 77.4576 52.4002 76.3957 53.123C75.3338 53.8457 74.5722 54.9313 74.2539 56.1758H57.8008C56.4104 54.8728 55.1093 53.4777 53.9062 52C52.3324 50.0571 50.5885 48.2583 48.6953 46.625H72.4609C72.7792 47.8695 73.5408 48.955 74.6027 49.6778C75.6647 50.4006 76.9539 50.7109 78.2284 50.5505C79.5029 50.3901 80.675 49.77 81.5248 48.8067C82.3745 47.8433 82.8434 46.6029 82.8434 45.3184C82.8434 44.0338 82.3745 42.7934 81.5248 41.83C80.675 40.8667 79.5029 40.2466 78.2284 40.0862C76.9539 39.9258 75.6647 40.2361 74.6027 40.9589C73.5408 41.6817 72.7792 42.7672 72.4609 44.0117H69.1406V37.4453C70.3853 37.1272 71.471 36.3658 72.194 35.3039C72.917 34.242 73.2275 32.9527 73.0672 31.6781C72.9069 30.4035 72.2868 29.2312 71.3235 28.3814C70.3601 27.5316 69.1196 27.0626 67.835 27.0626C66.5503 27.0626 65.3098 27.5316 64.3465 28.3814C63.3831 29.2312 62.763 30.4035 62.6027 31.6781C62.4424 32.9527 62.7529 34.242 63.4759 35.3039C64.1989 36.3658 65.2846 37.1272 66.5293 37.4453V44.0117H45.2402C42.1055 41.9746 38.8203 40.6914 35.4082 40.168V35.0156H44.0195C44.3376 36.2603 45.0991 37.346 46.161 38.069C47.2229 38.792 48.5121 39.1025 49.7867 38.9422C51.0614 38.7819 52.2336 38.1619 53.0834 37.1985C53.9333 36.2351 54.4022 34.9946 54.4022 33.71C54.4022 32.4253 53.9333 31.1848 53.0834 30.2215C52.2336 29.2581 51.0614 28.638 49.7867 28.4777C48.5121 28.3174 47.2229 28.6279 46.161 29.3509C45.0991 30.0739 44.3376 31.1596 44.0195 32.4043H35.4004V20.8145H49.2363C49.5546 22.059 50.3162 23.1445 51.3781 23.8673C52.4401 24.5901 53.7293 24.9004 55.0038 24.74C56.2783 24.5796 57.4504 23.9595 58.3002 22.9961C59.1499 22.0328 59.6188 20.7924 59.6188 19.5078C59.6188 18.2232 59.1499 16.9829 58.3002 16.0195C57.4504 15.0561 56.2783 14.436 55.0038 14.2756C53.7293 14.1152 52.4401 14.4256 51.3781 15.1483C50.3162 15.8711 49.5546 16.9567 49.2363 18.2012H34.0937C33.9221 18.2009 33.7521 18.2345 33.5934 18.3001C33.4348 18.3657 33.2906 18.4619 33.1692 18.5833C33.0479 18.7047 32.9516 18.8488 32.886 19.0075C32.8205 19.1661 32.7868 19.3361 32.7871 19.5078V39.8926C26.2129 39.6328 20.959 42.1875 18.2754 43.8516C18.0391 39.0703 18.3184 27.3301 25.6973 18.8516C31.416 12.2695 40.2344 8.93555 51.9316 8.93555C68.4883 8.93555 80.8145 16.6816 86.6406 30.75C90.8008 40.7891 91.0137 52.8633 87.916 63.3184C85.1719 64.3301 73.0957 67.9395 60.8965 58.7891ZM76.6836 57.4824C76.6851 56.9555 76.8428 56.4408 77.1367 56.0034C77.4306 55.566 77.8475 55.2255 78.3348 55.0249C78.8221 54.8243 79.3579 54.7727 79.8745 54.8764C80.3911 54.9801 80.8654 55.2347 81.2375 55.6078C81.6096 55.981 81.8627 56.456 81.965 56.973C82.0672 57.4899 82.0139 58.0256 81.8119 58.5123C81.6099 58.999 81.2682 59.4149 80.8299 59.7075C80.3917 60.0001 79.8766 60.1562 79.3496 60.1562C78.9991 60.156 78.652 60.0867 78.3283 59.9522C78.0046 59.8178 77.7105 59.6209 77.463 59.3727C77.2154 59.1246 77.0191 58.8301 76.8854 58.5061C76.7516 58.1821 76.6831 57.8349 76.6836 57.4844V57.4824ZM67.834 35.0215C67.3078 35.0196 66.7939 34.8618 66.3572 34.5682C65.9205 34.2745 65.5806 33.8581 65.3802 33.3715C65.1799 32.8849 65.1282 32.3499 65.2316 31.8339C65.3351 31.3179 65.589 30.8441 65.9614 30.4723C66.3337 30.1005 66.8079 29.8472 67.324 29.7446C67.8401 29.6419 68.3751 29.6944 68.8614 29.8954C69.3478 30.0964 69.7637 30.437 70.0567 30.8741C70.3497 31.3112 70.5066 31.8253 70.5078 32.3516C70.5073 32.7021 70.4377 33.0491 70.303 33.3727C70.1684 33.6963 69.9712 33.9902 69.7229 34.2377C69.4746 34.4851 69.18 34.6811 68.8559 34.8146C68.5318 34.9481 68.1845 35.0164 67.834 35.0156V35.0215ZM74.8867 45.3125C74.8863 44.785 75.0424 44.2693 75.3352 43.8306C75.628 43.3919 76.0444 43.0499 76.5316 42.8478C77.0188 42.6458 77.555 42.5929 78.0724 42.6957C78.5897 42.7985 79.0649 43.0524 79.4379 43.4254C79.8109 43.7984 80.0648 44.2736 80.1676 44.7909C80.2704 45.3083 80.2175 45.8445 80.0154 46.3317C79.8134 46.8189 79.4714 47.2353 79.0327 47.5281C78.5939 47.8209 78.0782 47.9769 77.5508 47.9766C76.8445 47.9755 76.1675 47.6945 75.6681 47.1951C75.1688 46.6958 74.8877 46.0187 74.8867 45.3125ZM46.4414 33.7109C46.4414 33.1836 46.5978 32.668 46.8908 32.2296C47.1839 31.7911 47.6004 31.4494 48.0876 31.2477C48.5749 31.0459 49.111 30.9933 49.6283 31.0963C50.1455 31.1993 50.6205 31.4534 50.9933 31.8265C51.366 32.1995 51.6198 32.6747 51.7224 33.192C51.8251 33.7093 51.772 34.2454 51.5699 34.7325C51.3679 35.2197 51.0258 35.6359 50.5872 35.9286C50.1485 36.2213 49.6328 36.3773 49.1055 36.377C48.3987 36.3764 47.7211 36.0953 47.2216 35.5954C46.722 35.0955 46.4414 34.4177 46.4414 33.7109ZM51.666 19.5078C51.6656 18.9804 51.8217 18.4646 52.1145 18.0259C52.4073 17.5872 52.8237 17.2452 53.3109 17.0432C53.7981 16.8411 54.3343 16.7882 54.8517 16.891C55.369 16.9938 55.8442 17.2477 56.2172 17.6207C56.5902 17.9937 56.8441 18.4689 56.9469 18.9862C57.0497 19.5036 56.9968 20.0398 56.7947 20.527C56.5927 21.0142 56.2507 21.4306 55.812 21.7234C55.3732 22.0162 54.8575 22.1723 54.3301 22.1719C53.6238 22.1708 52.9468 21.8898 52.4474 21.3904C51.9481 20.8911 51.667 20.214 51.666 19.5078Z"/>
</mask>
<path d="M90.2676 64.4941C93.6641 53.3613 93.4863 40.4492 89.0547 29.75C82.7988 14.6484 69.6133 6.32227 51.9316 6.32227C39.4531 6.32227 29.9473 9.96094 23.7109 17.1484C14.209 28.0859 15.5078 43.4219 15.8145 46.0332L7.77148 65.5645C7.4452 66.3287 7.32467 67.165 7.42187 67.9902C7.53999 68.9182 7.93802 69.7882 8.56294 70.4843C9.18786 71.1804 10.01 71.6696 10.9199 71.8867L17.5996 73.4766L21.3281 84.793C21.8451 86.3458 22.9334 87.6438 24.3723 88.4237C25.8112 89.2035 27.4929 89.4068 29.0762 88.9922L45.0469 84.7656V92.2812C45.0469 92.9492 45.5019 93.582 46.1641 93.6738C46.3495 93.7007 46.5386 93.6874 46.7185 93.6348C46.8984 93.5821 47.0649 93.4914 47.2066 93.3688C47.3483 93.2461 47.462 93.0944 47.5399 92.924C47.6178 92.7535 47.6582 92.5683 47.6582 92.3809V83.0566C47.6577 82.8567 47.6115 82.6594 47.5232 82.48C47.4348 82.3006 47.3066 82.1438 47.1484 82.0215C46.9905 81.8984 46.8061 81.8138 46.6098 81.7745C46.4135 81.7351 46.2107 81.7421 46.0176 81.7949L28.4023 86.4668C27.4637 86.7178 26.4646 86.6006 25.6095 86.1391C24.7544 85.6776 24.1081 84.9068 23.8027 83.9844L19.8457 71.9746C19.7763 71.7629 19.6539 71.5724 19.4902 71.4213C19.3264 71.2702 19.1268 71.1635 18.9102 71.1113L11.5215 69.3535C11.2423 69.287 10.9809 69.1608 10.7551 68.9836C10.5293 68.8064 10.3446 68.5824 10.2136 68.3271C10.0825 68.0717 10.0084 67.7911 9.99611 67.5043C9.98386 67.2176 10.0338 66.9316 10.1426 66.666L18.2266 47.0371C19.4805 46.0996 25.8047 41.75 33.9414 42.5762C40.4023 43.2266 46.4414 46.9531 51.8887 53.6484C53.2497 55.3229 54.7315 56.8955 56.3223 58.3535C56.3603 58.3931 56.4007 58.4303 56.4434 58.4648C64.2578 65.5664 72.4102 67.3828 78.6738 67.3828C81.4544 67.3863 84.224 67.0318 86.9141 66.3281C84.9473 71.6426 82.0938 76.416 78.4121 80.1016C78.289 80.2232 78.1911 80.3679 78.1241 80.5275C78.0571 80.687 78.0222 80.8582 78.0215 81.0312V92.2715C78.0215 92.9395 78.4766 93.5723 79.1406 93.6641C79.3261 93.691 79.5152 93.6776 79.6951 93.625C79.875 93.5724 80.0414 93.4816 80.1831 93.359C80.3249 93.2364 80.4386 93.0847 80.5165 92.9142C80.5944 92.7437 80.6347 92.5585 80.6348 92.3711V81.5664C84.9121 77.1445 88.1074 71.332 90.125 64.918C90.1975 64.7864 90.2458 64.6428 90.2676 64.4941ZM60.8965 58.7891H74.2539C74.5722 60.0336 75.3338 61.1191 76.3957 61.8419C77.4576 62.5647 78.7469 62.875 80.0214 62.7146C81.2959 62.5542 82.468 61.9341 83.3177 60.9707C84.1675 60.0074 84.6363 58.767 84.6363 57.4824C84.6363 56.1979 84.1675 54.9575 83.3177 53.9941C82.468 53.0307 81.2959 52.4107 80.0214 52.2503C78.7469 52.0899 77.4576 52.4002 76.3957 53.123C75.3338 53.8457 74.5722 54.9313 74.2539 56.1758H57.8008C56.4104 54.8728 55.1093 53.4777 53.9062 52C52.3324 50.0571 50.5885 48.2583 48.6953 46.625H72.4609C72.7792 47.8695 73.5408 48.955 74.6027 49.6778C75.6647 50.4006 76.9539 50.7109 78.2284 50.5505C79.5029 50.3901 80.675 49.77 81.5248 48.8067C82.3745 47.8433 82.8434 46.6029 82.8434 45.3184C82.8434 44.0338 82.3745 42.7934 81.5248 41.83C80.675 40.8667 79.5029 40.2466 78.2284 40.0862C76.9539 39.9258 75.6647 40.2361 74.6027 40.9589C73.5408 41.6817 72.7792 42.7672 72.4609 44.0117H69.1406V37.4453C70.3853 37.1272 71.471 36.3658 72.194 35.3039C72.917 34.242 73.2275 32.9527 73.0672 31.6781C72.9069 30.4035 72.2868 29.2312 71.3235 28.3814C70.3601 27.5316 69.1196 27.0626 67.835 27.0626C66.5503 27.0626 65.3098 27.5316 64.3465 28.3814C63.3831 29.2312 62.763 30.4035 62.6027 31.6781C62.4424 32.9527 62.7529 34.242 63.4759 35.3039C64.1989 36.3658 65.2846 37.1272 66.5293 37.4453V44.0117H45.2402C42.1055 41.9746 38.8203 40.6914 35.4082 40.168V35.0156H44.0195C44.3376 36.2603 45.0991 37.346 46.161 38.069C47.2229 38.792 48.5121 39.1025 49.7867 38.9422C51.0614 38.7819 52.2336 38.1619 53.0834 37.1985C53.9333 36.2351 54.4022 34.9946 54.4022 33.71C54.4022 32.4253 53.9333 31.1848 53.0834 30.2215C52.2336 29.2581 51.0614 28.638 49.7867 28.4777C48.5121 28.3174 47.2229 28.6279 46.161 29.3509C45.0991 30.0739 44.3376 31.1596 44.0195 32.4043H35.4004V20.8145H49.2363C49.5546 22.059 50.3162 23.1445 51.3781 23.8673C52.4401 24.5901 53.7293 24.9004 55.0038 24.74C56.2783 24.5796 57.4504 23.9595 58.3002 22.9961C59.1499 22.0328 59.6188 20.7924 59.6188 19.5078C59.6188 18.2232 59.1499 16.9829 58.3002 16.0195C57.4504 15.0561 56.2783 14.436 55.0038 14.2756C53.7293 14.1152 52.4401 14.4256 51.3781 15.1483C50.3162 15.8711 49.5546 16.9567 49.2363 18.2012H34.0937C33.9221 18.2009 33.7521 18.2345 33.5934 18.3001C33.4348 18.3657 33.2906 18.4619 33.1692 18.5833C33.0479 18.7047 32.9516 18.8488 32.886 19.0075C32.8205 19.1661 32.7868 19.3361 32.7871 19.5078V39.8926C26.2129 39.6328 20.959 42.1875 18.2754 43.8516C18.0391 39.0703 18.3184 27.3301 25.6973 18.8516C31.416 12.2695 40.2344 8.93555 51.9316 8.93555C68.4883 8.93555 80.8145 16.6816 86.6406 30.75C90.8008 40.7891 91.0137 52.8633 87.916 63.3184C85.1719 64.3301 73.0957 67.9395 60.8965 58.7891ZM76.6836 57.4824C76.6851 56.9555 76.8428 56.4408 77.1367 56.0034C77.4306 55.566 77.8475 55.2255 78.3348 55.0249C78.8221 54.8243 79.3579 54.7727 79.8745 54.8764C80.3911 54.9801 80.8654 55.2347 81.2375 55.6078C81.6096 55.981 81.8627 56.456 81.965 56.973C82.0672 57.4899 82.0139 58.0256 81.8119 58.5123C81.6099 58.999 81.2682 59.4149 80.8299 59.7075C80.3917 60.0001 79.8766 60.1562 79.3496 60.1562C78.9991 60.156 78.652 60.0867 78.3283 59.9522C78.0046 59.8178 77.7105 59.6209 77.463 59.3727C77.2154 59.1246 77.0191 58.8301 76.8854 58.5061C76.7516 58.1821 76.6831 57.8349 76.6836 57.4844V57.4824ZM67.834 35.0215C67.3078 35.0196 66.7939 34.8618 66.3572 34.5682C65.9205 34.2745 65.5806 33.8581 65.3802 33.3715C65.1799 32.8849 65.1282 32.3499 65.2316 31.8339C65.3351 31.3179 65.589 30.8441 65.9614 30.4723C66.3337 30.1005 66.8079 29.8472 67.324 29.7446C67.8401 29.6419 68.3751 29.6944 68.8614 29.8954C69.3478 30.0964 69.7637 30.437 70.0567 30.8741C70.3497 31.3112 70.5066 31.8253 70.5078 32.3516C70.5073 32.7021 70.4377 33.0491 70.303 33.3727C70.1684 33.6963 69.9712 33.9902 69.7229 34.2377C69.4746 34.4851 69.18 34.6811 68.8559 34.8146C68.5318 34.9481 68.1845 35.0164 67.834 35.0156V35.0215ZM74.8867 45.3125C74.8863 44.785 75.0424 44.2693 75.3352 43.8306C75.628 43.3919 76.0444 43.0499 76.5316 42.8478C77.0188 42.6458 77.555 42.5929 78.0724 42.6957C78.5897 42.7985 79.0649 43.0524 79.4379 43.4254C79.8109 43.7984 80.0648 44.2736 80.1676 44.7909C80.2704 45.3083 80.2175 45.8445 80.0154 46.3317C79.8134 46.8189 79.4714 47.2353 79.0327 47.5281C78.5939 47.8209 78.0782 47.9769 77.5508 47.9766C76.8445 47.9755 76.1675 47.6945 75.6681 47.1951C75.1688 46.6958 74.8877 46.0187 74.8867 45.3125ZM46.4414 33.7109C46.4414 33.1836 46.5978 32.668 46.8908 32.2296C47.1839 31.7911 47.6004 31.4494 48.0876 31.2477C48.5749 31.0459 49.111 30.9933 49.6283 31.0963C50.1455 31.1993 50.6205 31.4534 50.9933 31.8265C51.366 32.1995 51.6198 32.6747 51.7224 33.192C51.8251 33.7093 51.772 34.2454 51.5699 34.7325C51.3679 35.2197 51.0258 35.6359 50.5872 35.9286C50.1485 36.2213 49.6328 36.3773 49.1055 36.377C48.3987 36.3764 47.7211 36.0953 47.2216 35.5954C46.722 35.0955 46.4414 34.4177 46.4414 33.7109ZM51.666 19.5078C51.6656 18.9804 51.8217 18.4646 52.1145 18.0259C52.4073 17.5872 52.8237 17.2452 53.3109 17.0432C53.7981 16.8411 54.3343 16.7882 54.8517 16.891C55.369 16.9938 55.8442 17.2477 56.2172 17.6207C56.5902 17.9937 56.8441 18.4689 56.9469 18.9862C57.0497 19.5036 56.9968 20.0398 56.7947 20.527C56.5927 21.0142 56.2507 21.4306 55.812 21.7234C55.3732 22.0162 54.8575 22.1723 54.3301 22.1719C53.6238 22.1708 52.9468 21.8898 52.4474 21.3904C51.9481 20.8911 51.667 20.214 51.666 19.5078Z" fill="url(#paint0_linear_29_260)"/>
<path d="M90.2676 64.4941C93.6641 53.3613 93.4863 40.4492 89.0547 29.75C82.7988 14.6484 69.6133 6.32227 51.9316 6.32227C39.4531 6.32227 29.9473 9.96094 23.7109 17.1484C14.209 28.0859 15.5078 43.4219 15.8145 46.0332L7.77148 65.5645C7.4452 66.3287 7.32467 67.165 7.42187 67.9902C7.53999 68.9182 7.93802 69.7882 8.56294 70.4843C9.18786 71.1804 10.01 71.6696 10.9199 71.8867L17.5996 73.4766L21.3281 84.793C21.8451 86.3458 22.9334 87.6438 24.3723 88.4237C25.8112 89.2035 27.4929 89.4068 29.0762 88.9922L45.0469 84.7656V92.2812C45.0469 92.9492 45.5019 93.582 46.1641 93.6738C46.3495 93.7007 46.5386 93.6874 46.7185 93.6348C46.8984 93.5821 47.0649 93.4914 47.2066 93.3688C47.3483 93.2461 47.462 93.0944 47.5399 92.924C47.6178 92.7535 47.6582 92.5683 47.6582 92.3809V83.0566C47.6577 82.8567 47.6115 82.6594 47.5232 82.48C47.4348 82.3006 47.3066 82.1438 47.1484 82.0215C46.9905 81.8984 46.8061 81.8138 46.6098 81.7745C46.4135 81.7351 46.2107 81.7421 46.0176 81.7949L28.4023 86.4668C27.4637 86.7178 26.4646 86.6006 25.6095 86.1391C24.7544 85.6776 24.1081 84.9068 23.8027 83.9844L19.8457 71.9746C19.7763 71.7629 19.6539 71.5724 19.4902 71.4213C19.3264 71.2702 19.1268 71.1635 18.9102 71.1113L11.5215 69.3535C11.2423 69.287 10.9809 69.1608 10.7551 68.9836C10.5293 68.8064 10.3446 68.5824 10.2136 68.3271C10.0825 68.0717 10.0084 67.7911 9.99611 67.5043C9.98386 67.2176 10.0338 66.9316 10.1426 66.666L18.2266 47.0371C19.4805 46.0996 25.8047 41.75 33.9414 42.5762C40.4023 43.2266 46.4414 46.9531 51.8887 53.6484C53.2497 55.3229 54.7315 56.8955 56.3223 58.3535C56.3603 58.3931 56.4007 58.4303 56.4434 58.4648C64.2578 65.5664 72.4102 67.3828 78.6738 67.3828C81.4544 67.3863 84.224 67.0318 86.9141 66.3281C84.9473 71.6426 82.0938 76.416 78.4121 80.1016C78.289 80.2232 78.1911 80.3679 78.1241 80.5275C78.0571 80.687 78.0222 80.8582 78.0215 81.0312V92.2715C78.0215 92.9395 78.4766 93.5723 79.1406 93.6641C79.3261 93.691 79.5152 93.6776 79.6951 93.625C79.875 93.5724 80.0414 93.4816 80.1831 93.359C80.3249 93.2364 80.4386 93.0847 80.5165 92.9142C80.5944 92.7437 80.6347 92.5585 80.6348 92.3711V81.5664C84.9121 77.1445 88.1074 71.332 90.125 64.918C90.1975 64.7864 90.2458 64.6428 90.2676 64.4941ZM60.8965 58.7891H74.2539C74.5722 60.0336 75.3338 61.1191 76.3957 61.8419C77.4576 62.5647 78.7469 62.875 80.0214 62.7146C81.2959 62.5542 82.468 61.9341 83.3177 60.9707C84.1675 60.0074 84.6363 58.767 84.6363 57.4824C84.6363 56.1979 84.1675 54.9575 83.3177 53.9941C82.468 53.0307 81.2959 52.4107 80.0214 52.2503C78.7469 52.0899 77.4576 52.4002 76.3957 53.123C75.3338 53.8457 74.5722 54.9313 74.2539 56.1758H57.8008C56.4104 54.8728 55.1093 53.4777 53.9062 52C52.3324 50.0571 50.5885 48.2583 48.6953 46.625H72.4609C72.7792 47.8695 73.5408 48.955 74.6027 49.6778C75.6647 50.4006 76.9539 50.7109 78.2284 50.5505C79.5029 50.3901 80.675 49.77 81.5248 48.8067C82.3745 47.8433 82.8434 46.6029 82.8434 45.3184C82.8434 44.0338 82.3745 42.7934 81.5248 41.83C80.675 40.8667 79.5029 40.2466 78.2284 40.0862C76.9539 39.9258 75.6647 40.2361 74.6027 40.9589C73.5408 41.6817 72.7792 42.7672 72.4609 44.0117H69.1406V37.4453C70.3853 37.1272 71.471 36.3658 72.194 35.3039C72.917 34.242 73.2275 32.9527 73.0672 31.6781C72.9069 30.4035 72.2868 29.2312 71.3235 28.3814C70.3601 27.5316 69.1196 27.0626 67.835 27.0626C66.5503 27.0626 65.3098 27.5316 64.3465 28.3814C63.3831 29.2312 62.763 30.4035 62.6027 31.6781C62.4424 32.9527 62.7529 34.242 63.4759 35.3039C64.1989 36.3658 65.2846 37.1272 66.5293 37.4453V44.0117H45.2402C42.1055 41.9746 38.8203 40.6914 35.4082 40.168V35.0156H44.0195C44.3376 36.2603 45.0991 37.346 46.161 38.069C47.2229 38.792 48.5121 39.1025 49.7867 38.9422C51.0614 38.7819 52.2336 38.1619 53.0834 37.1985C53.9333 36.2351 54.4022 34.9946 54.4022 33.71C54.4022 32.4253 53.9333 31.1848 53.0834 30.2215C52.2336 29.2581 51.0614 28.638 49.7867 28.4777C48.5121 28.3174 47.2229 28.6279 46.161 29.3509C45.0991 30.0739 44.3376 31.1596 44.0195 32.4043H35.4004V20.8145H49.2363C49.5546 22.059 50.3162 23.1445 51.3781 23.8673C52.4401 24.5901 53.7293 24.9004 55.0038 24.74C56.2783 24.5796 57.4504 23.9595 58.3002 22.9961C59.1499 22.0328 59.6188 20.7924 59.6188 19.5078C59.6188 18.2232 59.1499 16.9829 58.3002 16.0195C57.4504 15.0561 56.2783 14.436 55.0038 14.2756C53.7293 14.1152 52.4401 14.4256 51.3781 15.1483C50.3162 15.8711 49.5546 16.9567 49.2363 18.2012H34.0937C33.9221 18.2009 33.7521 18.2345 33.5934 18.3001C33.4348 18.3657 33.2906 18.4619 33.1692 18.5833C33.0479 18.7047 32.9516 18.8488 32.886 19.0075C32.8205 19.1661 32.7868 19.3361 32.7871 19.5078V39.8926C26.2129 39.6328 20.959 42.1875 18.2754 43.8516C18.0391 39.0703 18.3184 27.3301 25.6973 18.8516C31.416 12.2695 40.2344 8.93555 51.9316 8.93555C68.4883 8.93555 80.8145 16.6816 86.6406 30.75C90.8008 40.7891 91.0137 52.8633 87.916 63.3184C85.1719 64.3301 73.0957 67.9395 60.8965 58.7891ZM76.6836 57.4824C76.6851 56.9555 76.8428 56.4408 77.1367 56.0034C77.4306 55.566 77.8475 55.2255 78.3348 55.0249C78.8221 54.8243 79.3579 54.7727 79.8745 54.8764C80.3911 54.9801 80.8654 55.2347 81.2375 55.6078C81.6096 55.981 81.8627 56.456 81.965 56.973C82.0672 57.4899 82.0139 58.0256 81.8119 58.5123C81.6099 58.999 81.2682 59.4149 80.8299 59.7075C80.3917 60.0001 79.8766 60.1562 79.3496 60.1562C78.9991 60.156 78.652 60.0867 78.3283 59.9522C78.0046 59.8178 77.7105 59.6209 77.463 59.3727C77.2154 59.1246 77.0191 58.8301 76.8854 58.5061C76.7516 58.1821 76.6831 57.8349 76.6836 57.4844V57.4824ZM67.834 35.0215C67.3078 35.0196 66.7939 34.8618 66.3572 34.5682C65.9205 34.2745 65.5806 33.8581 65.3802 33.3715C65.1799 32.8849 65.1282 32.3499 65.2316 31.8339C65.3351 31.3179 65.589 30.8441 65.9614 30.4723C66.3337 30.1005 66.8079 29.8472 67.324 29.7446C67.8401 29.6419 68.3751 29.6944 68.8614 29.8954C69.3478 30.0964 69.7637 30.437 70.0567 30.8741C70.3497 31.3112 70.5066 31.8253 70.5078 32.3516C70.5073 32.7021 70.4377 33.0491 70.303 33.3727C70.1684 33.6963 69.9712 33.9902 69.7229 34.2377C69.4746 34.4851 69.18 34.6811 68.8559 34.8146C68.5318 34.9481 68.1845 35.0164 67.834 35.0156V35.0215ZM74.8867 45.3125C74.8863 44.785 75.0424 44.2693 75.3352 43.8306C75.628 43.3919 76.0444 43.0499 76.5316 42.8478C77.0188 42.6458 77.555 42.5929 78.0724 42.6957C78.5897 42.7985 79.0649 43.0524 79.4379 43.4254C79.8109 43.7984 80.0648 44.2736 80.1676 44.7909C80.2704 45.3083 80.2175 45.8445 80.0154 46.3317C79.8134 46.8189 79.4714 47.2353 79.0327 47.5281C78.5939 47.8209 78.0782 47.9769 77.5508 47.9766C76.8445 47.9755 76.1675 47.6945 75.6681 47.1951C75.1688 46.6958 74.8877 46.0187 74.8867 45.3125ZM46.4414 33.7109C46.4414 33.1836 46.5978 32.668 46.8908 32.2296C47.1839 31.7911 47.6004 31.4494 48.0876 31.2477C48.5749 31.0459 49.111 30.9933 49.6283 31.0963C50.1455 31.1993 50.6205 31.4534 50.9933 31.8265C51.366 32.1995 51.6198 32.6747 51.7224 33.192C51.8251 33.7093 51.772 34.2454 51.5699 34.7325C51.3679 35.2197 51.0258 35.6359 50.5872 35.9286C50.1485 36.2213 49.6328 36.3773 49.1055 36.377C48.3987 36.3764 47.7211 36.0953 47.2216 35.5954C46.722 35.0955 46.4414 34.4177 46.4414 33.7109ZM51.666 19.5078C51.6656 18.9804 51.8217 18.4646 52.1145 18.0259C52.4073 17.5872 52.8237 17.2452 53.3109 17.0432C53.7981 16.8411 54.3343 16.7882 54.8517 16.891C55.369 16.9938 55.8442 17.2477 56.2172 17.6207C56.5902 17.9937 56.8441 18.4689 56.9469 18.9862C57.0497 19.5036 56.9968 20.0398 56.7947 20.527C56.5927 21.0142 56.2507 21.4306 55.812 21.7234C55.3732 22.0162 54.8575 22.1723 54.3301 22.1719C53.6238 22.1708 52.9468 21.8898 52.4474 21.3904C51.9481 20.8911 51.667 20.214 51.666 19.5078Z" stroke="url(#paint1_linear_29_260)" stroke-width="3" mask="url(#path-1-outside-1_29_260)"/>
<defs>
<linearGradient id="paint0_linear_29_260" x1="50.0045" y1="6.32227" x2="50.0045" y2="93.6873" gradientUnits="userSpaceOnUse">
<stop stop-color="#5454E8"/>
<stop offset="1" stop-color="#D3DEFF"/>
</linearGradient>
<linearGradient id="paint1_linear_29_260" x1="50.0045" y1="6.32227" x2="50.0045" y2="93.6873" gradientUnits="userSpaceOnUse">
<stop stop-color="#5454E8"/>
<stop offset="1" stop-color="#D3DEFF"/>
</linearGradient>
</defs>
</svg>
