<svg width="60" height="60" viewBox="0 0 60 60" fill="none" xmlns="http://www.w3.org/2000/svg">
<g clip-path="url(#clip0_195_287)">
<path d="M58.4211 0H44.2105C43.3421 0 42.6316 0.710526 42.6316 1.57895V28.2632H31.5789V17.3684C31.5789 16.5 30.8684 15.7895 30 15.7895H15.7895C14.9211 15.7895 14.2105 16.5 14.2105 17.3684V41.7632H1.57895C0.710526 41.7632 0 42.4737 0 43.3421V58.4211C0 59.2895 0.710526 60 1.57895 60H58.4211C59.2895 60 60 59.2895 60 58.4211V1.57895C60 0.710526 59.2895 0 58.4211 0ZM14.2105 56.8421H3.15789V44.9211H14.2105V56.8421ZM28.4211 56.8421H17.3684V18.9474H28.4211V56.8421ZM42.6316 56.8421H31.5789V31.4211H42.6316V56.8421ZM56.8421 56.8421H45.7895V3.15789H56.8421V56.8421Z" fill="#D3DEFF"/>
</g>
<defs>
<clipPath id="clip0_195_287">
<rect width="60" height="60" fill="white"/>
</clipPath>
</defs>
</svg>
