<svg width="216" height="216" viewBox="0 0 216 216" fill="none" xmlns="http://www.w3.org/2000/svg">
<path d="M143.54 214.884C136.943 214.884 131.066 212.652 125.405 210.528C120.554 208.683 115.982 206.955 111.644 206.955C107.792 206.955 103.4 208.602 98.747 210.33C93.122 212.409 86.75 214.794 79.829 214.794C68.453 214.794 58.256 208.278 48.608 194.913C48.203 194.346 8.92702 136.665 28.007 93.8335C38.456 70.3795 53.513 58.4725 72.755 58.4725C82.907 58.4725 92.276 61.6585 99.8 64.2235C104.012 65.6545 107.99 67.0045 110.087 67.0045C112.562 67.0045 116.54 65.5555 120.725 63.9985C127.709 61.4335 136.421 58.2205 146.411 58.2205C160.892 58.2205 173.996 64.9075 186.488 78.6595C186.909 79.1292 187.229 79.6813 187.425 80.2809C187.622 80.8805 187.692 81.5144 187.631 82.1425C187.562 82.7693 187.363 83.375 187.049 83.9217C186.735 84.4684 186.311 84.9442 185.804 85.3195C172.637 94.9135 165.959 106.011 165.959 118.314C165.959 133.551 173.483 144.747 191.078 155.7C192.004 156.27 192.69 157.159 193.008 158.199C193.327 159.24 193.255 160.36 192.806 161.352C176.264 198.36 161.072 214.884 143.54 214.884ZM110.51 55.8985C109.43 55.8985 108.341 55.8265 107.27 55.7005C106.208 55.5742 105.227 55.0717 104.504 54.2842C103.781 53.4966 103.364 52.4761 103.328 51.4075C102.14 21.2935 127.664 2.85251 146.528 1.14251C147.649 1.04704 148.765 1.37056 149.661 2.05048C150.557 2.7304 151.169 3.71844 151.379 4.82351C153.458 16.4155 149.57 29.1595 140.687 39.7795C132.245 49.8775 120.959 55.8985 110.51 55.8985Z" fill="#D3DEFF"/>
</svg>
