<svg width="216" height="216" viewBox="0 0 216 216" fill="none" xmlns="http://www.w3.org/2000/svg">
<path d="M177.3 158.4C176.4 156.6 175.5 154.8 175.5 153C175.5 149.4 173.7 146.7 171 144C170.1 143.1 168.3 142.2 167.4 142.2C172.8 126 164.7 109.8 155.7 98.1002C148.5 87.3002 137.7 79.2002 138.6 64.8002C138.6 47.7002 140.4 16.2002 108.9 18.9002C76.5 20.7002 85.5 54.0002 84.6 65.7002C84.6 75.6002 80.1 85.5002 72.9 93.6002C71.1 95.4002 69.3 98.1002 68.4 99.9002C59.4 110.7 54.9 125.1 54.9 138.6C53.1 140.4 51.3 142.2 50.4 144C49.5 144.9 48.6 145.8 48.6 146.7C47.7 147.6 45.9 148.5 44.1 149.4C40.5 150.3 37.8 152.1 36 155.7C35.1 158.4 34.2 162 35.1 165.6C36 167.4 36 169.2 35.1 171.9C33.3 175.5 33.3 180 35.1 184.5C37.8 188.1 42.3 189 48.6 189.9C53.1 189.9 58.5 191.7 63 193.5C67.5 196.2 72.9 198 78.3 198C81 198 84.6 197.1 87.3 196.2C90 194.4 91.8 192.6 92.7 189.9C96.3 189.9 101.7 188.1 108 188.1C113.4 188.1 118.8 189.9 126 189C126 189.9 126 190.8 126.9 191.7C128.7 196.2 133.2 199.8 138.6 200.7H140.4C147.6 199.8 154.8 196.2 159.3 190.8C162.9 187.2 167.4 184.5 171.9 182.7C177.3 180 180.9 178.2 181.8 173.7C182.7 167.4 180.9 163.8 177.3 158.4ZM115.2 43.2002C120.6 44.1002 125.1 48.6002 124.2 54.0002C124.2 56.7002 123.3 59.4002 121.5 62.1002H120.6C118.8 61.2002 117.9 61.2002 117 60.3002C117.9 59.4002 117.9 57.6002 118.8 55.8002C118.8 52.2002 117 49.5002 115.2 49.5002C112.5 49.5002 110.7 52.2002 110.7 55.8002V56.7002C109.8 55.8002 108 55.8002 107.1 54.9002V54.0002C106.2 49.5002 109.8 44.1002 115.2 43.2002ZM112.5 61.2002C113.4 62.1002 115.2 63.0002 116.1 63.0002C117 63.0002 118.8 63.9002 119.7 64.8002C121.5 65.7002 123.3 66.6002 123.3 69.3002C123.3 72.0002 120.6 74.7002 115.2 76.5002C113.4 77.4002 112.5 77.4002 111.6 78.3002C108.9 80.1002 106.2 81.0002 102.6 81.0002C99.9 81.0002 97.2 79.2002 95.4 77.4002C94.5 76.5002 93.6 75.6002 91.8 74.7002C90.9 73.8002 89.1 72.0002 88.2 69.3002C88.2 68.4002 89.1 67.5002 90 66.6002C92.7 64.8002 93.6 63.9002 94.5 63.0002L95.4 62.1002C97.2 59.4002 100.8 57.6002 104.4 57.6002C107.1 58.5002 109.8 59.4002 112.5 61.2002ZM93.6 45.0002C97.2 45.0002 99.9 48.6002 100.8 54.9002V56.7002C99.9 56.7002 98.1 57.6002 97.2 58.5002V56.7002C97.2 54.0002 95.4 51.3002 93.6 52.2002C91.8 52.2002 90.9 54.9002 90.9 57.6002C90.9 59.4002 91.8 60.3002 92.7 61.2002C92.7 61.2002 91.8 62.1002 90.9 62.1002C89.1 60.3002 87.3 57.6002 87.3 54.9002C87.3 49.5002 90 45.0002 93.6 45.0002ZM84.6 189.9C78.3 192.6 70.2 191.7 64.8 188.1C59.4 185.4 54.9 184.5 48.6 184.5C44.1 183.6 39.6 183.6 38.7 181.8C37.8 180 37.8 177.3 39.6 172.8C40.5 170.1 40.5 167.4 39.6 164.7C38.7 162 38.7 160.2 39.6 157.5C40.5 154.8 42.3 153.9 45 153C47.7 152.1 49.5 151.2 51.3 149.4C52.2 148.5 53.1 147.6 54 145.8C56.7 142.2 58.5 140.4 61.2 140.4C66.6 141.3 71.1 149.4 74.7 157.5C76.5 160.2 78.3 163.8 81 166.5C84.6 171 89.1 177.3 89.1 180.9C89.1 185.4 87.3 188.1 84.6 189.9ZM128.7 170.1C128.7 171 128.7 171 127.8 171.9C117 180 102.6 180.9 90.9 174.6L85.5 166.5C93.6 165.6 91.8 154.8 74.7 144C56.7 132.3 69.3 110.7 75.6 100.8C76.5 99.9002 76.5 100.8 72.9 108C70.2 113.4 64.8 126.9 72 136.8C72 129.6 73.8 122.4 76.5 115.2C82.8 103.5 87.3 90.0002 90 76.5002C90.9 77.4002 90.9 77.4002 91.8 77.4002C92.7 78.3002 93.6 79.2002 94.5 79.2002C96.3 81.9002 99.9 82.8002 102.6 82.8002H103.5C107.1 82.8002 110.7 81.9002 113.4 79.2002C114.3 78.3002 115.2 77.4002 117 77.4002C119.7 76.5002 122.4 74.7002 125.1 72.0002C128.7 83.7002 132.3 94.5002 137.7 104.4C141.3 111.6 144 118.8 145.8 126.9C148.5 126.9 152.1 127.8 154.8 129.6C162 133.2 164.7 135.9 163.8 140.4H162C162 137.7 160.2 135 153.9 132.3C147.6 129.6 142.2 129.6 140.4 135.9C139.5 135.9 138.6 136.8 137.7 136.8C130.5 140.4 130.5 150.3 129.6 160.2C130.5 163.8 129.6 166.5 128.7 170.1ZM170.1 175.5C164.7 177.3 160.2 180.9 156.6 185.4C153 190.8 146.7 194.4 139.5 193.5C135.9 193.5 132.3 190.8 131.4 187.2C130.5 181.8 130.5 176.4 133.2 171C134.1 167.4 135 164.7 135.9 161.1C136.8 150.3 136.8 144 141.3 141.3C141.3 145.8 144 148.5 147.6 150.3C152.1 150.3 156.6 149.4 160.2 145.8H162C164.7 145.8 166.5 145.8 168.3 147.6C170.1 149.4 171 152.1 171 153.9C171 156.6 172.8 159.3 173.7 162C178.2 166.5 178.2 169.2 178.2 170.1C177.3 171.9 173.7 173.7 170.1 175.5ZM89.1 67.5002C88.2 67.5002 88.2 67.5002 88.2 68.4002C88.2 68.4002 88.2 69.3002 89.1 69.3002C90 69.3002 90 70.2002 90 70.2002C92.7 73.8002 97.2 75.6002 102.6 76.5002C107.1 75.6002 111.6 74.7002 116.1 71.1002L121.5 68.4002C122.4 68.4002 122.4 67.5002 122.4 67.5002C122.4 66.6002 122.4 66.6002 121.5 66.6002C119.7 67.5002 117 68.4002 115.2 69.3002C111.6 72.0002 107.1 73.8002 102.6 73.8002C98.1 73.8002 94.5 71.1002 91.8 68.4002C90.9 68.4002 90 67.5002 89.1 67.5002Z" fill="#D3DEFF"/>
</svg>
