<svg width="60" height="60" viewBox="0 0 60 60" fill="none" xmlns="http://www.w3.org/2000/svg">
<path d="M28.7812 0.65625C28.6406 1.03125 28.5937 1.82812 28.6874 2.4375C28.7812 3.23438 29.1093 3.51562 29.9999 3.51562C31.0312 3.51562 31.1718 3.32812 31.1718 1.875C31.1718 0.515625 30.9843 0.1875 30.0937 0.09375C29.4843 0 28.9687 0.234375 28.7812 0.65625Z" fill="#D3DEFF"/>
<path d="M13.8748 4.96875C13.4998 6 14.3904 7.5 15.4686 7.5C16.6404 7.5 17.0154 6.79688 16.6873 5.34375C16.3592 4.03125 14.3436 3.75 13.8748 4.96875Z" fill="#D3DEFF"/>
<path d="M43.3124 5.34375C42.9843 6.79688 43.3593 7.5 44.5312 7.5C45.6093 7.5 46.4999 6 46.1249 4.96875C45.6562 3.75 43.6405 4.03125 43.3124 5.34375Z" fill="#D3DEFF"/>
<path d="M24.8435 6.9375C18.8435 8.53125 13.6873 12.7031 11.2029 18.0469C9.60916 21.375 9.56229 23.2031 10.9685 23.2031C11.6248 23.2031 12.3748 22.2188 13.6404 19.7812C15.8435 15.4219 18.1404 13.0312 22.031 11.1094C24.8435 9.70312 25.406 9.60938 29.9998 9.60938C34.5935 9.60938 35.156 9.70312 37.9685 11.1094C41.8592 13.0312 44.156 15.4219 46.3592 19.7812C47.6248 22.2188 48.3748 23.2031 49.031 23.2031C50.4373 23.2031 50.3904 21.375 48.7967 18C46.2654 12.5625 40.8279 8.29688 34.6404 6.79688C30.8435 5.90625 28.6404 5.95312 24.8435 6.9375Z" fill="#D3DEFF"/>
<path d="M2.95302 15.7969C2.6249 16.5937 4.45302 18.4219 5.29677 18.1406C6.32802 17.8125 6.7499 16.5 6.14052 15.75C5.29677 14.7656 3.32802 14.8125 2.95302 15.7969Z" fill="#D3DEFF"/>
<path d="M53.8592 15.75C53.2498 16.5 53.6717 17.8125 54.703 18.1406C55.5467 18.4219 57.3748 16.5937 57.0467 15.7969C56.6717 14.8125 54.703 14.7656 53.8592 15.75Z" fill="#D3DEFF"/>
<path d="M26.8593 17.5781C25.7811 18.5156 24.4218 19.9688 23.8593 20.9062C22.9218 22.4062 22.6874 22.5469 21.328 22.3125C20.0155 22.0312 19.6405 22.2188 18.7968 23.25C18.2811 23.9062 17.7186 24.7969 17.6249 25.2188C17.3905 25.875 16.6874 26.0156 13.4061 26.0156C8.34364 26.0156 7.73426 26.4844 7.78114 30.375C7.82801 32.1562 8.15614 33.7031 8.85926 35.0625C9.79676 36.9375 9.84364 37.0781 9.04676 37.3125C4.87489 38.625 0.656139 42.2344 1.26551 43.9219C1.73426 45.375 3.89051 47.3906 6.14051 48.5156C11.0624 51.0469 17.9999 51.0469 22.9686 48.5156C25.1718 47.3906 25.2655 47.3906 26.8124 48.1406C27.6561 48.6094 29.1093 48.9375 29.9999 48.9375C30.8905 48.9375 32.3436 48.6094 33.1874 48.1406C34.7343 47.3906 34.828 47.3906 37.0311 48.5156C41.9999 51.0469 48.9374 51.0469 53.8593 48.5156C56.1093 47.3906 58.2655 45.375 58.7343 43.9219C59.3436 42.2344 55.1249 38.625 50.953 37.3125C50.1561 37.0781 50.203 36.9375 51.1405 35.0625C51.8436 33.7031 52.1718 32.1562 52.2186 30.375C52.2655 26.4844 51.6561 26.0156 46.5936 26.0156C43.3124 26.0156 42.6093 25.875 42.3749 25.2188C42.2811 24.7969 41.7186 23.9062 41.203 23.25C40.3593 22.2188 39.9843 22.0312 38.6718 22.3125C37.3124 22.5469 37.078 22.4062 36.1405 20.9062C34.6405 18.5156 31.453 15.9375 29.9999 15.9375C29.2499 15.9375 27.9843 16.5938 26.8593 17.5781ZM31.7343 20.25C34.828 23.625 34.8749 23.6719 32.2968 26.2969L29.9999 28.6406L27.703 26.2969C25.4999 24.0469 25.453 23.9062 26.1561 22.875C27.0468 21.5156 29.6249 18.75 29.9999 18.75C30.1405 18.75 30.9374 19.4531 31.7343 20.25ZM23.8593 26.7188C28.078 29.7656 31.4061 37.5469 30.6561 42.4688C30.0468 46.6406 28.6874 46.8281 25.078 43.3125C22.1718 40.5 20.1093 36 19.7811 31.875C19.5468 28.5 20.2968 25.3125 21.2811 25.3125C21.6093 25.3125 22.7811 25.9688 23.8593 26.7188ZM39.8436 27C41.1561 30.9375 39.5624 37.6875 36.2811 41.9531C33.9374 45.0938 33.5155 44.9062 33.5155 40.875C33.5155 38.625 33.1405 36.2344 32.6249 34.5938L31.7343 31.875L32.9999 30C34.2655 28.0781 37.6405 25.3125 38.7186 25.3125C39.0468 25.3125 39.5624 26.0625 39.8436 27ZM15.9843 29.0625C16.6874 29.4844 16.8749 30.0938 16.8749 32.0156C16.9218 33.375 17.2968 35.625 17.8124 37.0312C18.2811 38.4375 18.6093 39.6562 18.5155 39.75C18.4218 39.8438 17.578 39.4688 16.5468 39C13.2655 37.2656 10.7811 33.75 10.7811 30.7969C10.7811 29.9531 10.9218 29.0625 11.1093 28.9219C11.578 28.4062 14.953 28.5469 15.9843 29.0625ZM49.1249 30.5625C49.3593 33.5156 46.8749 37.2188 43.453 39C42.4218 39.4688 41.578 39.8438 41.4843 39.75C41.3905 39.6562 41.7186 38.4375 42.1874 37.0312C42.703 35.625 43.078 33.375 43.1249 32.0156C43.1249 29.1094 43.7811 28.5469 46.8749 28.7344C48.9374 28.8281 48.9843 28.875 49.1249 30.5625ZM15.1874 41.4844C16.9218 42.375 18.9374 43.125 19.6405 43.125C20.3905 43.125 21.328 43.5469 21.8436 44.1094C22.6874 45.0469 22.6874 45.0938 21.7968 45.75C19.6874 47.2969 13.4061 47.8594 9.79676 46.875C7.40614 46.2188 4.92176 44.4375 4.92176 43.3594C4.92176 42.3281 9.23426 39.8438 11.0155 39.8438C11.578 39.8438 13.453 40.5938 15.1874 41.4844ZM53.2499 41.4844C55.7343 42.9375 55.7811 43.7812 53.4843 45.3281C51.328 46.7812 49.078 47.3438 45.4686 47.3438C42.1405 47.3438 39.6093 46.7812 38.203 45.75C37.3124 45.0938 37.3124 45.0469 38.1561 44.1094C38.6718 43.5469 39.6093 43.125 40.3593 43.125C41.0624 43.125 42.9843 42.375 44.6249 41.4844C48.1405 39.5625 49.9686 39.5625 53.2499 41.4844Z" fill="#D3DEFF"/>
<path d="M23.2031 51.375C22.2187 52.3594 22.9687 53.6719 24.8906 54.3281C26.8125 54.9844 33.1875 54.9844 35.1094 54.3281C37.0312 53.6719 37.7812 52.3594 36.7969 51.375C36.1875 50.7656 35.9062 50.7656 34.4531 51.375C32.3906 52.2188 27.6094 52.2188 25.5469 51.375C24.0937 50.7656 23.8125 50.7656 23.2031 51.375Z" fill="#D3DEFF"/>
<path d="M16.0781 54.2344C15.0468 54.6094 15.4218 56.1094 16.7343 57.1406C19.1249 59.0625 22.6874 59.7656 29.9999 59.7656C35.1093 59.7656 37.4531 59.5312 39.4218 58.9688C42.4687 58.0312 44.5312 56.5312 44.5312 55.3125C44.5312 53.9531 43.4062 53.9062 40.9218 55.125C35.9531 57.6094 24.4218 57.6562 19.3593 55.2188C18.0937 54.6562 17.0156 54.1406 16.8749 54.0938C16.7343 54.0469 16.3593 54.0938 16.0781 54.2344Z" fill="#D3DEFF"/>
</svg>
