<svg width="60" height="60" viewBox="0 0 60 60" fill="none" xmlns="http://www.w3.org/2000/svg">
<path d="M26.9063 9.5625C22.3594 11.5781 20.8125 17.1094 23.7188 21.3281C24.3281 22.2188 24.6563 23.0156 24.4688 23.1094C24.2813 23.2031 22.8281 23.6719 21.2344 24.1406C19.5 24.6094 17.8594 25.5 17.2031 26.2031C15.9375 27.5625 11.25 40.3594 11.25 42.4219C11.25 43.1719 11.8125 44.2031 12.6563 45.0938C14.1094 46.5 15.1406 46.6406 18.1875 45.6094C18.6094 45.4688 17.0625 46.6406 14.7188 48.1875C10.0781 51.2344 8.90625 52.5 8.90625 54.4688C8.90625 56.5781 9.89063 58.0781 11.9531 59.0625C13.7813 59.9531 14.8125 60 28.9688 60C45.6094 60 47.9063 59.7188 49.9219 57.6562C51.0469 56.4844 51.1875 56.0156 50.9531 54.375C50.625 51.8906 50.25 51.4688 45.2344 48.1875C42.9375 46.6406 41.3906 45.5156 41.8125 45.6562C44.9063 46.6406 45.8906 46.5 47.3438 45.0938C48.1875 44.2031 48.75 43.1719 48.75 42.4219C48.75 40.3594 44.0625 27.5625 42.7969 26.2031C42.1406 25.5 40.5 24.6094 38.7656 24.1406C37.1719 23.6719 35.7188 23.2031 35.5313 23.1094C35.3438 23.0156 35.6719 22.2188 36.2813 21.3281C40.7813 14.7656 34.125 6.42188 26.9063 9.5625ZM33.375 12.5156C35.4375 14.3438 36 17.7656 34.5469 19.6875C32.7656 22.0312 29.625 22.6875 27.1875 21.2344C22.3125 18.375 24.9844 10.7812 30.6094 11.4375C31.5938 11.5312 32.8594 12.0469 33.375 12.5156ZM37.5938 26.2031C39.3281 26.7656 41.0156 27.6094 41.3906 28.125C41.7188 28.5938 43.0313 32.0625 44.3438 35.8125C47.4375 45.0469 47.5313 44.9531 38.3906 41.6719C34.6875 40.3125 30.8906 39.1875 30 39.1875C29.1094 39.1875 25.3125 40.3125 21.6094 41.6719C12.1406 45.0469 12.2813 45.2812 16.5 33.375C17.7656 29.8125 18.75 27.8438 19.4531 27.375C20.0156 27 22.0313 26.2969 23.9531 25.7812C28.2188 24.6094 33 24.7969 37.5938 26.2031ZM34.0781 42.7031C36.5625 43.5 37.5938 44.0625 37.7813 44.7188C38.25 46.3125 39.8438 47.7188 44.1563 50.4375C48.5156 53.2031 49.5938 54.7031 48.1875 56.1094C46.9219 57.3281 44.0625 57.6562 33.7969 57.6562C25.0781 57.6562 23.625 57.5625 22.875 56.8594C20.25 54.5156 22.7813 53.3906 35.2969 51.3281C37.125 51.0469 38.0156 50.0156 37.125 49.125C36.5625 48.5625 25.6875 50.2969 22.8281 51.4219C20.7188 52.2656 19.4531 54.3281 19.875 56.3438L20.1563 57.75L16.6406 57.5625C13.7813 57.4219 12.9375 57.1875 12.0938 56.3906C10.3594 54.6562 11.2969 53.2969 16.6406 49.7344C19.875 47.625 21.5156 46.1719 21.9844 45.1875C22.5 43.9688 23.1563 43.5469 26.2031 42.5625C28.1719 41.8594 30 41.3906 30.2344 41.4844C30.5156 41.5312 32.25 42.0938 34.0781 42.7031Z" fill="#D3DEFF"/>
<path d="M27.7031 29.1562C27.2343 30.2812 26.6718 31.7812 26.4374 32.5312C26.1093 33.6562 25.4531 34.125 23.2031 35.0625C21.6562 35.6719 20.1093 36.4688 19.7343 36.7969C18.9843 37.5469 19.4062 38.4375 20.5781 38.4375C21.4687 38.4375 27.0937 36.2344 27.9374 35.5781C28.2187 35.3438 28.6874 33.9844 29.0156 32.5781C29.3437 31.1719 29.7656 30 29.9999 30C30.2343 30 30.6562 31.1719 30.9843 32.5781C31.3124 33.9844 31.7812 35.3438 32.0624 35.5781C32.9062 36.2344 38.5312 38.4375 39.4218 38.4375C40.5937 38.4375 41.0156 37.5469 40.2656 36.7969C39.8906 36.4688 38.3437 35.6719 36.7968 35.0625C34.5468 34.125 33.8906 33.6562 33.5624 32.5312C33.3281 31.7812 32.7656 30.2812 32.2968 29.1562C31.5468 27.4219 31.2656 27.1875 29.9999 27.1875C28.7343 27.1875 28.4531 27.4219 27.7031 29.1562Z" fill="#D3DEFF"/>
</svg>
