<?xml version="1.0" standalone="no"?>
<!DOCTYPE svg PUBLIC "-//W3C//DTD SVG 20010904//EN"
 "http://www.w3.org/TR/2001/REC-SVG-20010904/DTD/svg10.dtd">
<svg version="1.0" xmlns="http://www.w3.org/2000/svg"
 width="128.000000pt" height="128.000000pt" viewBox="0 0 128.000000 128.000000"
 preserveAspectRatio="xMidYMid meet">

<g transform="translate(0.000000,128.000000) scale(0.100000,-0.100000)"
fill="#000000" stroke="none">
<path d="M574 1076 c-97 -43 -130 -161 -68 -251 13 -19 20 -36 16 -38 -4 -2
-35 -12 -69 -22 -37 -10 -72 -29 -86 -44 -27 -29 -127 -302 -127 -346 0 -16
12 -38 30 -57 31 -30 53 -33 118 -11 9 3 -24 -22 -74 -55 -99 -65 -124 -92
-124 -134 0 -45 21 -77 65 -98 39 -19 61 -20 363 -20 355 0 404 6 447 50 24
25 27 35 22 70 -7 53 -15 62 -122 132 -49 33 -82 57 -73 54 66 -21 87 -18 118
12 18 19 30 41 30 57 0 44 -100 317 -127 346 -14 15 -49 34 -86 44 -34 10 -65
20 -69 22 -4 2 3 19 16 38 96 140 -46 318 -200 251z m138 -63 c44 -39 56 -112
25 -153 -38 -50 -105 -64 -157 -33 -104 61 -47 223 73 209 21 -2 48 -13 59
-23z m90 -292 c37 -12 73 -30 81 -41 7 -10 35 -84 63 -164 66 -197 68 -195
-127 -125 -79 29 -160 53 -179 53 -19 0 -100 -24 -179 -53 -202 -72 -199 -77
-109 177 27 76 48 118 63 128 12 8 55 23 96 34 91 25 193 21 291 -9z m-75
-352 c53 -17 75 -29 79 -43 10 -34 44 -64 136 -122 93 -59 116 -91 86 -121
-27 -26 -88 -33 -307 -33 -186 0 -217 2 -233 17 -56 50 -2 74 265 118 39 6 58
28 39 47 -12 12 -244 -25 -305 -49 -45 -18 -72 -62 -63 -105 l6 -30 -75 4
c-61 3 -79 8 -97 25 -37 37 -17 66 97 142 69 45 104 76 114 97 11 26 25 35 90
56 42 15 81 25 86 23 6 -1 43 -13 82 -26z"/>
<path d="M591 658 c-10 -24 -22 -56 -27 -72 -7 -24 -21 -34 -69 -54 -33 -13
-66 -30 -74 -37 -16 -16 -7 -35 18 -35 19 0 139 47 157 61 6 5 16 34 23 64 7
30 16 55 21 55 5 0 14 -25 21 -55 7 -30 17 -59 23 -64 18 -14 138 -61 157 -61
25 0 34 19 18 35 -8 7 -41 24 -74 37 -48 20 -62 30 -69 54 -5 16 -17 48 -27
72 -16 37 -22 42 -49 42 -27 0 -33 -5 -49 -42z"/>
</g>
</svg>
