<?xml version="1.0" standalone="no"?>
<!DOCTYPE svg PUBLIC "-//W3C//DTD SVG 20010904//EN"
 "http://www.w3.org/TR/2001/REC-SVG-20010904/DTD/svg10.dtd">
<svg version="1.0" xmlns="http://www.w3.org/2000/svg"
 width="128.000000pt" height="128.000000pt" viewBox="0 0 128.000000 128.000000"
 preserveAspectRatio="xMidYMid meet">

<g transform="translate(0.000000,128.000000) scale(0.100000,-0.100000)"
fill="#000000" stroke="none">
<path d="M614 1266 c-3 -8 -4 -25 -2 -38 2 -17 9 -23 28 -23 22 0 25 4 25 35
0 29 -4 36 -23 38 -13 2 -24 -3 -28 -12z"/>
<path d="M296 1174 c-8 -22 11 -54 34 -54 25 0 33 15 26 46 -7 28 -50 34 -60
8z"/>
<path d="M924 1166 c-7 -31 1 -46 26 -46 23 0 42 32 34 54 -10 26 -53 20 -60
-8z"/>
<path d="M530 1132 c-128 -34 -238 -123 -291 -237 -34 -71 -35 -110 -5 -110
14 0 30 21 57 73 47 93 96 144 179 185 60 30 72 32 170 32 98 0 110 -2 170
-32 83 -41 132 -92 179 -185 27 -52 43 -73 57 -73 30 0 29 39 -5 111 -54 116
-170 207 -302 239 -81 19 -128 18 -209 -3z"/>
<path d="M63 943 c-7 -17 32 -56 50 -50 22 7 31 35 18 51 -18 21 -60 20 -68
-1z"/>
<path d="M1149 944 c-13 -16 -4 -44 18 -51 18 -6 57 33 50 50 -8 21 -50 22
-68 1z"/>
<path d="M573 905 c-23 -20 -52 -51 -64 -71 -20 -32 -25 -35 -54 -30 -28 6
-36 2 -54 -20 -11 -14 -23 -33 -25 -42 -5 -14 -20 -17 -90 -17 -108 0 -121
-10 -120 -93 1 -38 8 -71 23 -100 20 -40 21 -43 4 -48 -89 -28 -179 -105 -166
-141 10 -31 56 -74 104 -98 105 -54 253 -54 359 0 47 24 49 24 82 8 18 -10 49
-17 68 -17 19 0 50 7 68 17 33 16 35 16 82 -8 106 -54 254 -54 359 0 48 24 94
67 104 98 13 36 -77 113 -166 141 -17 5 -16 8 4 48 15 29 22 62 23 100 1 83
-12 93 -120 93 -70 0 -85 3 -90 17 -2 9 -14 28 -25 42 -18 22 -26 26 -54 20
-29 -5 -34 -2 -54 30 -32 51 -100 106 -131 106 -16 0 -43 -14 -67 -35z m104
-57 c66 -72 67 -73 12 -129 l-49 -50 -49 50 c-47 48 -48 51 -33 73 19 29 74
88 82 88 3 0 20 -15 37 -32z m-168 -138 c90 -65 161 -231 145 -336 -13 -89
-42 -93 -119 -18 -62 60 -106 156 -113 244 -5 72 11 140 32 140 7 0 32 -14 55
-30z m341 -6 c28 -84 -6 -228 -76 -319 -50 -67 -59 -63 -59 23 0 48 -8 99 -19
134 l-19 58 27 40 c27 41 99 100 122 100 7 0 18 -16 24 -36z m-509 -44 c15 -9
19 -22 19 -63 1 -29 9 -77 20 -107 10 -30 17 -56 15 -58 -2 -2 -20 6 -42 16
-70 37 -123 112 -123 175 0 18 3 37 7 40 10 11 82 8 104 -3z m707 -32 c5 -63
-48 -142 -121 -180 -22 -10 -40 -18 -42 -16 -2 2 5 28 15 58 11 30 19 78 20
107 0 62 14 74 80 70 44 -2 45 -3 48 -39z m-724 -233 c37 -19 80 -35 95 -35
16 0 36 -9 47 -21 18 -20 18 -21 -1 -35 -45 -33 -179 -45 -256 -24 -51 14
-104 52 -104 75 0 22 92 75 130 75 12 0 52 -16 89 -35z m812 0 c53 -31 54 -49
5 -82 -46 -31 -94 -43 -171 -43 -71 0 -125 12 -155 34 -19 14 -19 15 -1 35 11
12 31 21 47 21 15 0 56 16 91 35 75 41 114 41 184 0z"/>
<path d="M495 184 c-21 -21 -5 -49 36 -63 41 -14 177 -14 218 0 41 14 57 42
36 63 -13 13 -19 13 -50 0 -44 -18 -146 -18 -190 0 -31 13 -37 13 -50 0z"/>
<path d="M343 123 c-22 -8 -14 -40 14 -62 51 -41 127 -56 283 -56 109 0 159 5
201 17 65 20 109 52 109 78 0 29 -24 30 -77 4 -106 -53 -352 -54 -460 -2 -27
12 -50 23 -53 24 -3 1 -11 0 -17 -3z"/>
</g>
</svg>
