<svg width="100" height="100" viewBox="0 0 100 100" fill="none" xmlns="http://www.w3.org/2000/svg">
<path d="M46.6813 54.9549C47.6635 55.6111 48.8182 55.9612 49.9994 55.9609L46.6813 54.9549ZM46.6813 54.9549C45.699 54.2987 44.9334 53.3658 44.4815 52.2743M46.6813 54.9549L44.4815 52.2743M44.4815 52.2743C44.0296 51.1828 43.9116 49.9818 44.1425 48.8232M44.4815 52.2743L44.1425 48.8232M44.1425 48.8232C44.3734 47.6646 44.9428 46.6006 45.7787 45.7658M44.1425 48.8232L45.7787 45.7658M45.7787 45.7658C46.6145 44.9309 47.6793 44.3628 48.8381 44.1333M45.7787 45.7658L48.8381 44.1333M48.8381 44.1333C49.9969 43.9038 51.1978 44.0232 52.2888 44.4764M48.8381 44.1333L52.2888 44.4764M52.2888 44.4764C53.3797 44.9297 54.3117 45.6964 54.9668 46.6795M52.2888 44.4764L54.9668 46.6795M54.9668 46.6795C55.6218 47.6625 55.9705 48.8178 55.9688 49.9991M54.9668 46.6795L55.9688 49.9991M55.9688 49.9991C55.9649 51.5803 55.3345 53.0956 54.2157 54.213C53.097 55.3304 51.581 55.9589 49.9999 55.9609L55.9688 49.9991ZM50.0005 40.4102H50C48.1049 40.4102 46.2523 40.9721 44.6765 42.025C43.1008 43.0779 41.8726 44.5744 41.1474 46.3253C40.4221 48.0762 40.2324 50.0028 40.6021 51.8615C40.9718 53.7203 41.8844 55.4276 43.2245 56.7677C44.5646 58.1078 46.2719 59.0204 48.1306 59.3901C49.9894 59.7598 51.916 59.5701 53.6669 58.8448C55.4178 58.1196 56.9143 56.8914 57.9672 55.3157C59.0201 53.7399 59.582 51.8873 59.582 49.9922V49.9917C59.5793 47.4513 58.569 45.0158 56.7727 43.2195C54.9764 41.4232 52.5409 40.4129 50.0005 40.4102Z" fill="url(#paint0_linear_29_264)" stroke="url(#paint1_linear_29_264)"/>
<mask id="path-2-outside-1_29_264" maskUnits="userSpaceOnUse" x="7.8967" y="7.9052" width="84" height="84" fill="black">
<rect fill="white" x="7.8967" y="7.9052" width="84" height="84"/>
<path d="M89.7207 49.0684L74.627 33.9844C74.4445 33.8014 74.2118 33.6767 73.9584 33.6262C73.7049 33.5756 73.4422 33.6015 73.2035 33.7004C72.9648 33.7994 72.7608 33.967 72.6175 34.182C72.4742 34.397 72.3979 34.6498 72.3984 34.9082V43.041H63.3984C61.9589 40.2846 59.7095 38.0353 56.9531 36.5957V27.5937H65.0859C65.3448 27.5949 65.5982 27.5191 65.814 27.3759C66.0297 27.2328 66.1981 27.0288 66.2977 26.7898C66.3973 26.5508 66.4236 26.2877 66.3734 26.0337C66.3232 25.7797 66.1987 25.5464 66.0156 25.3633L50.9219 10.2715C50.6722 10.0362 50.3421 9.9052 49.999 9.9052C49.656 9.9052 49.3259 10.0362 49.0762 10.2715L33.9844 25.3633C33.8017 25.546 33.6773 25.7788 33.6269 26.0322C33.5765 26.2857 33.6024 26.5484 33.7012 26.7871C33.8001 27.0258 33.9676 27.2299 34.1824 27.3735C34.3972 27.517 34.6498 27.5937 34.9082 27.5937H43.041V36.5937C40.2842 38.0327 38.0347 40.2822 36.5957 43.0391H27.5996V34.9004C27.598 34.6427 27.5203 34.3911 27.3761 34.1775C27.2319 33.9639 27.0278 33.7976 26.7894 33.6997C26.551 33.6018 26.2889 33.5766 26.0362 33.6272C25.7835 33.6779 25.5514 33.8021 25.3691 33.9844L10.2793 49.0684C10.0343 49.3134 9.8967 49.6457 9.8967 49.9922C9.8967 50.3387 10.0343 50.671 10.2793 50.916L25.3691 66.0156C25.4898 66.1384 25.6335 66.2361 25.7921 66.3031C25.9506 66.3701 26.1208 66.4052 26.293 66.4062C26.4646 66.407 26.6347 66.3731 26.793 66.3066C27.0316 66.2081 27.2355 66.041 27.3791 65.8265C27.5227 65.612 27.5995 65.3597 27.5996 65.1016V56.9492H36.6016C38.0407 59.7059 40.2902 61.9553 43.0469 63.3945V72.3945H34.9082C34.6506 72.3953 34.399 72.4723 34.185 72.6157C33.971 72.759 33.8041 72.9625 33.7054 73.2004C33.6067 73.4383 33.5805 73.7001 33.6301 73.9529C33.6798 74.2057 33.803 74.4382 33.9844 74.6211L49.0762 89.7129C49.1973 89.8341 49.3412 89.9303 49.4996 89.9959C49.6579 90.0615 49.8276 90.0953 49.999 90.0953C50.1704 90.0953 50.3402 90.0615 50.4985 89.9959C50.6569 89.9303 50.8007 89.8341 50.9219 89.7129L66.0156 74.6211C66.1983 74.4384 66.3227 74.2056 66.3731 73.9521C66.4235 73.6987 66.3977 73.436 66.2988 73.1973C66.1999 72.9585 66.0325 72.7545 65.8176 72.6109C65.6028 72.4673 65.3502 72.3907 65.0918 72.3906H56.959V63.3906C59.7157 61.9514 61.9651 59.702 63.4043 56.9453H72.4043V65.0801C72.4045 65.3382 72.4812 65.5905 72.6248 65.805C72.7684 66.0195 72.9724 66.1866 73.2109 66.2852C73.3692 66.3518 73.5393 66.3857 73.7109 66.3848C73.8828 66.3836 74.0526 66.3484 74.2108 66.2814C74.369 66.2144 74.5125 66.1167 74.6328 65.9941L89.7266 50.9043C89.9715 50.6593 90.1092 50.327 90.1092 49.9805C90.1092 49.634 89.9715 49.3017 89.7266 49.0566L89.7207 49.0684ZM44.3477 24.9805H38.0625L50 13.043L61.9395 24.9805H55.6524C55.3058 24.9805 54.9735 25.1181 54.7284 25.3632C54.4834 25.6082 54.3457 25.9406 54.3457 26.2871V35.5273C51.5121 34.6693 48.4879 34.6693 45.6543 35.5273V26.2891C45.6546 26.1173 45.6209 25.9472 45.5554 25.7884C45.4898 25.6297 45.3936 25.4854 45.2723 25.3639C45.1509 25.2423 45.0068 25.1459 44.8481 25.0801C44.6895 25.0143 44.5194 24.9805 44.3477 24.9805ZM26.293 54.3379C26.1213 54.3376 25.9513 54.3713 25.7926 54.4368C25.634 54.5024 25.4898 54.5986 25.3685 54.72C25.2471 54.8414 25.1508 54.9855 25.0853 55.1442C25.0197 55.3028 24.9861 55.4729 24.9863 55.6445V61.9297L13.0508 50L24.9863 38.0605V44.3359C24.9861 44.5076 25.0197 44.6776 25.0853 44.8363C25.1508 44.9949 25.2471 45.1391 25.3685 45.2604C25.4898 45.3818 25.634 45.4781 25.7926 45.5436C25.9513 45.6092 26.1213 45.6428 26.293 45.6426H35.5352C34.6758 48.476 34.6758 51.5006 35.5352 54.334L26.293 54.3379ZM55.6524 75H61.9375L50 86.9414L38.0625 75H44.3477C44.5193 75.0003 44.6894 74.9666 44.848 74.9011C45.0066 74.8355 45.1508 74.7393 45.2722 74.6179C45.3936 74.4965 45.4898 74.3523 45.5554 74.1937C45.6209 74.035 45.6546 73.865 45.6543 73.6934V64.4531C48.4881 65.3099 51.5119 65.3099 54.3457 64.4531V73.6914C54.3452 73.8632 54.3786 74.0335 54.4441 74.1923C54.5095 74.3512 54.6057 74.4956 54.7271 74.6172C54.8486 74.7388 54.9928 74.8352 55.1516 74.9009C55.3103 74.9666 55.4805 75.0003 55.6524 75ZM50 62.5C47.5277 62.5 45.111 61.7669 43.0554 60.3934C40.9998 59.0198 39.3976 57.0676 38.4515 54.7835C37.5054 52.4995 37.2579 49.9861 37.7402 47.5614C38.2225 45.1366 39.413 42.9093 41.1612 41.1612C42.9093 39.413 45.1366 38.2225 47.5614 37.7402C49.9861 37.2579 52.4995 37.5054 54.7835 38.4515C57.0676 39.3976 59.0199 40.9998 60.3934 43.0554C61.7669 45.111 62.5 47.5277 62.5 50C62.4974 53.3144 61.1796 56.4923 58.836 58.836C56.4923 61.1796 53.3144 62.4974 50 62.5ZM75.0117 61.9394V55.6445C75.012 55.473 74.9784 55.3032 74.913 55.1446C74.8475 54.9861 74.7515 54.8421 74.6303 54.7207C74.5091 54.5994 74.3652 54.5031 74.2068 54.4374C74.0484 54.3717 73.8785 54.3379 73.707 54.3379H64.4649C65.3242 51.5045 65.3242 48.4799 64.4649 45.6465H73.7051C73.8766 45.6465 74.0464 45.6127 74.2048 45.547C74.3632 45.4813 74.5072 45.385 74.6283 45.2637C74.7495 45.1423 74.8456 44.9982 74.911 44.8397C74.9765 44.6812 75.01 44.5113 75.0098 44.3398V38.0527L86.9492 50L75.0117 61.9394Z"/>
</mask>
<path d="M89.7207 49.0684L74.627 33.9844C74.4445 33.8014 74.2118 33.6767 73.9584 33.6262C73.7049 33.5756 73.4422 33.6015 73.2035 33.7004C72.9648 33.7994 72.7608 33.967 72.6175 34.182C72.4742 34.397 72.3979 34.6498 72.3984 34.9082V43.041H63.3984C61.9589 40.2846 59.7095 38.0353 56.9531 36.5957V27.5937H65.0859C65.3448 27.5949 65.5982 27.5191 65.814 27.3759C66.0297 27.2328 66.1981 27.0288 66.2977 26.7898C66.3973 26.5508 66.4236 26.2877 66.3734 26.0337C66.3232 25.7797 66.1987 25.5464 66.0156 25.3633L50.9219 10.2715C50.6722 10.0362 50.3421 9.9052 49.999 9.9052C49.656 9.9052 49.3259 10.0362 49.0762 10.2715L33.9844 25.3633C33.8017 25.546 33.6773 25.7788 33.6269 26.0322C33.5765 26.2857 33.6024 26.5484 33.7012 26.7871C33.8001 27.0258 33.9676 27.2299 34.1824 27.3735C34.3972 27.517 34.6498 27.5937 34.9082 27.5937H43.041V36.5937C40.2842 38.0327 38.0347 40.2822 36.5957 43.0391H27.5996V34.9004C27.598 34.6427 27.5203 34.3911 27.3761 34.1775C27.2319 33.9639 27.0278 33.7976 26.7894 33.6997C26.551 33.6018 26.2889 33.5766 26.0362 33.6272C25.7835 33.6779 25.5514 33.8021 25.3691 33.9844L10.2793 49.0684C10.0343 49.3134 9.8967 49.6457 9.8967 49.9922C9.8967 50.3387 10.0343 50.671 10.2793 50.916L25.3691 66.0156C25.4898 66.1384 25.6335 66.2361 25.7921 66.3031C25.9506 66.3701 26.1208 66.4052 26.293 66.4062C26.4646 66.407 26.6347 66.3731 26.793 66.3066C27.0316 66.2081 27.2355 66.041 27.3791 65.8265C27.5227 65.612 27.5995 65.3597 27.5996 65.1016V56.9492H36.6016C38.0407 59.7059 40.2902 61.9553 43.0469 63.3945V72.3945H34.9082C34.6506 72.3953 34.399 72.4723 34.185 72.6157C33.971 72.759 33.8041 72.9625 33.7054 73.2004C33.6067 73.4383 33.5805 73.7001 33.6301 73.9529C33.6798 74.2057 33.803 74.4382 33.9844 74.6211L49.0762 89.7129C49.1973 89.8341 49.3412 89.9303 49.4996 89.9959C49.6579 90.0615 49.8276 90.0953 49.999 90.0953C50.1704 90.0953 50.3402 90.0615 50.4985 89.9959C50.6569 89.9303 50.8007 89.8341 50.9219 89.7129L66.0156 74.6211C66.1983 74.4384 66.3227 74.2056 66.3731 73.9521C66.4235 73.6987 66.3977 73.436 66.2988 73.1973C66.1999 72.9585 66.0325 72.7545 65.8176 72.6109C65.6028 72.4673 65.3502 72.3907 65.0918 72.3906H56.959V63.3906C59.7157 61.9514 61.9651 59.702 63.4043 56.9453H72.4043V65.0801C72.4045 65.3382 72.4812 65.5905 72.6248 65.805C72.7684 66.0195 72.9724 66.1866 73.2109 66.2852C73.3692 66.3518 73.5393 66.3857 73.7109 66.3848C73.8828 66.3836 74.0526 66.3484 74.2108 66.2814C74.369 66.2144 74.5125 66.1167 74.6328 65.9941L89.7266 50.9043C89.9715 50.6593 90.1092 50.327 90.1092 49.9805C90.1092 49.634 89.9715 49.3017 89.7266 49.0566L89.7207 49.0684ZM44.3477 24.9805H38.0625L50 13.043L61.9395 24.9805H55.6524C55.3058 24.9805 54.9735 25.1181 54.7284 25.3632C54.4834 25.6082 54.3457 25.9406 54.3457 26.2871V35.5273C51.5121 34.6693 48.4879 34.6693 45.6543 35.5273V26.2891C45.6546 26.1173 45.6209 25.9472 45.5554 25.7884C45.4898 25.6297 45.3936 25.4854 45.2723 25.3639C45.1509 25.2423 45.0068 25.1459 44.8481 25.0801C44.6895 25.0143 44.5194 24.9805 44.3477 24.9805ZM26.293 54.3379C26.1213 54.3376 25.9513 54.3713 25.7926 54.4368C25.634 54.5024 25.4898 54.5986 25.3685 54.72C25.2471 54.8414 25.1508 54.9855 25.0853 55.1442C25.0197 55.3028 24.9861 55.4729 24.9863 55.6445V61.9297L13.0508 50L24.9863 38.0605V44.3359C24.9861 44.5076 25.0197 44.6776 25.0853 44.8363C25.1508 44.9949 25.2471 45.1391 25.3685 45.2604C25.4898 45.3818 25.634 45.4781 25.7926 45.5436C25.9513 45.6092 26.1213 45.6428 26.293 45.6426H35.5352C34.6758 48.476 34.6758 51.5006 35.5352 54.334L26.293 54.3379ZM55.6524 75H61.9375L50 86.9414L38.0625 75H44.3477C44.5193 75.0003 44.6894 74.9666 44.848 74.9011C45.0066 74.8355 45.1508 74.7393 45.2722 74.6179C45.3936 74.4965 45.4898 74.3523 45.5554 74.1937C45.6209 74.035 45.6546 73.865 45.6543 73.6934V64.4531C48.4881 65.3099 51.5119 65.3099 54.3457 64.4531V73.6914C54.3452 73.8632 54.3786 74.0335 54.4441 74.1923C54.5095 74.3512 54.6057 74.4956 54.7271 74.6172C54.8486 74.7388 54.9928 74.8352 55.1516 74.9009C55.3103 74.9666 55.4805 75.0003 55.6524 75ZM50 62.5C47.5277 62.5 45.111 61.7669 43.0554 60.3934C40.9998 59.0198 39.3976 57.0676 38.4515 54.7835C37.5054 52.4995 37.2579 49.9861 37.7402 47.5614C38.2225 45.1366 39.413 42.9093 41.1612 41.1612C42.9093 39.413 45.1366 38.2225 47.5614 37.7402C49.9861 37.2579 52.4995 37.5054 54.7835 38.4515C57.0676 39.3976 59.0199 40.9998 60.3934 43.0554C61.7669 45.111 62.5 47.5277 62.5 50C62.4974 53.3144 61.1796 56.4923 58.836 58.836C56.4923 61.1796 53.3144 62.4974 50 62.5ZM75.0117 61.9394V55.6445C75.012 55.473 74.9784 55.3032 74.913 55.1446C74.8475 54.9861 74.7515 54.8421 74.6303 54.7207C74.5091 54.5994 74.3652 54.5031 74.2068 54.4374C74.0484 54.3717 73.8785 54.3379 73.707 54.3379H64.4649C65.3242 51.5045 65.3242 48.4799 64.4649 45.6465H73.7051C73.8766 45.6465 74.0464 45.6127 74.2048 45.547C74.3632 45.4813 74.5072 45.385 74.6283 45.2637C74.7495 45.1423 74.8456 44.9982 74.911 44.8397C74.9765 44.6812 75.01 44.5113 75.0098 44.3398V38.0527L86.9492 50L75.0117 61.9394Z" fill="url(#paint2_linear_29_264)"/>
<path d="M89.7207 49.0684L74.627 33.9844C74.4445 33.8014 74.2118 33.6767 73.9584 33.6262C73.7049 33.5756 73.4422 33.6015 73.2035 33.7004C72.9648 33.7994 72.7608 33.967 72.6175 34.182C72.4742 34.397 72.3979 34.6498 72.3984 34.9082V43.041H63.3984C61.9589 40.2846 59.7095 38.0353 56.9531 36.5957V27.5937H65.0859C65.3448 27.5949 65.5982 27.5191 65.814 27.3759C66.0297 27.2328 66.1981 27.0288 66.2977 26.7898C66.3973 26.5508 66.4236 26.2877 66.3734 26.0337C66.3232 25.7797 66.1987 25.5464 66.0156 25.3633L50.9219 10.2715C50.6722 10.0362 50.3421 9.9052 49.999 9.9052C49.656 9.9052 49.3259 10.0362 49.0762 10.2715L33.9844 25.3633C33.8017 25.546 33.6773 25.7788 33.6269 26.0322C33.5765 26.2857 33.6024 26.5484 33.7012 26.7871C33.8001 27.0258 33.9676 27.2299 34.1824 27.3735C34.3972 27.517 34.6498 27.5937 34.9082 27.5937H43.041V36.5937C40.2842 38.0327 38.0347 40.2822 36.5957 43.0391H27.5996V34.9004C27.598 34.6427 27.5203 34.3911 27.3761 34.1775C27.2319 33.9639 27.0278 33.7976 26.7894 33.6997C26.551 33.6018 26.2889 33.5766 26.0362 33.6272C25.7835 33.6779 25.5514 33.8021 25.3691 33.9844L10.2793 49.0684C10.0343 49.3134 9.8967 49.6457 9.8967 49.9922C9.8967 50.3387 10.0343 50.671 10.2793 50.916L25.3691 66.0156C25.4898 66.1384 25.6335 66.2361 25.7921 66.3031C25.9506 66.3701 26.1208 66.4052 26.293 66.4062C26.4646 66.407 26.6347 66.3731 26.793 66.3066C27.0316 66.2081 27.2355 66.041 27.3791 65.8265C27.5227 65.612 27.5995 65.3597 27.5996 65.1016V56.9492H36.6016C38.0407 59.7059 40.2902 61.9553 43.0469 63.3945V72.3945H34.9082C34.6506 72.3953 34.399 72.4723 34.185 72.6157C33.971 72.759 33.8041 72.9625 33.7054 73.2004C33.6067 73.4383 33.5805 73.7001 33.6301 73.9529C33.6798 74.2057 33.803 74.4382 33.9844 74.6211L49.0762 89.7129C49.1973 89.8341 49.3412 89.9303 49.4996 89.9959C49.6579 90.0615 49.8276 90.0953 49.999 90.0953C50.1704 90.0953 50.3402 90.0615 50.4985 89.9959C50.6569 89.9303 50.8007 89.8341 50.9219 89.7129L66.0156 74.6211C66.1983 74.4384 66.3227 74.2056 66.3731 73.9521C66.4235 73.6987 66.3977 73.436 66.2988 73.1973C66.1999 72.9585 66.0325 72.7545 65.8176 72.6109C65.6028 72.4673 65.3502 72.3907 65.0918 72.3906H56.959V63.3906C59.7157 61.9514 61.9651 59.702 63.4043 56.9453H72.4043V65.0801C72.4045 65.3382 72.4812 65.5905 72.6248 65.805C72.7684 66.0195 72.9724 66.1866 73.2109 66.2852C73.3692 66.3518 73.5393 66.3857 73.7109 66.3848C73.8828 66.3836 74.0526 66.3484 74.2108 66.2814C74.369 66.2144 74.5125 66.1167 74.6328 65.9941L89.7266 50.9043C89.9715 50.6593 90.1092 50.327 90.1092 49.9805C90.1092 49.634 89.9715 49.3017 89.7266 49.0566L89.7207 49.0684ZM44.3477 24.9805H38.0625L50 13.043L61.9395 24.9805H55.6524C55.3058 24.9805 54.9735 25.1181 54.7284 25.3632C54.4834 25.6082 54.3457 25.9406 54.3457 26.2871V35.5273C51.5121 34.6693 48.4879 34.6693 45.6543 35.5273V26.2891C45.6546 26.1173 45.6209 25.9472 45.5554 25.7884C45.4898 25.6297 45.3936 25.4854 45.2723 25.3639C45.1509 25.2423 45.0068 25.1459 44.8481 25.0801C44.6895 25.0143 44.5194 24.9805 44.3477 24.9805ZM26.293 54.3379C26.1213 54.3376 25.9513 54.3713 25.7926 54.4368C25.634 54.5024 25.4898 54.5986 25.3685 54.72C25.2471 54.8414 25.1508 54.9855 25.0853 55.1442C25.0197 55.3028 24.9861 55.4729 24.9863 55.6445V61.9297L13.0508 50L24.9863 38.0605V44.3359C24.9861 44.5076 25.0197 44.6776 25.0853 44.8363C25.1508 44.9949 25.2471 45.1391 25.3685 45.2604C25.4898 45.3818 25.634 45.4781 25.7926 45.5436C25.9513 45.6092 26.1213 45.6428 26.293 45.6426H35.5352C34.6758 48.476 34.6758 51.5006 35.5352 54.334L26.293 54.3379ZM55.6524 75H61.9375L50 86.9414L38.0625 75H44.3477C44.5193 75.0003 44.6894 74.9666 44.848 74.9011C45.0066 74.8355 45.1508 74.7393 45.2722 74.6179C45.3936 74.4965 45.4898 74.3523 45.5554 74.1937C45.6209 74.035 45.6546 73.865 45.6543 73.6934V64.4531C48.4881 65.3099 51.5119 65.3099 54.3457 64.4531V73.6914C54.3452 73.8632 54.3786 74.0335 54.4441 74.1923C54.5095 74.3512 54.6057 74.4956 54.7271 74.6172C54.8486 74.7388 54.9928 74.8352 55.1516 74.9009C55.3103 74.9666 55.4805 75.0003 55.6524 75ZM50 62.5C47.5277 62.5 45.111 61.7669 43.0554 60.3934C40.9998 59.0198 39.3976 57.0676 38.4515 54.7835C37.5054 52.4995 37.2579 49.9861 37.7402 47.5614C38.2225 45.1366 39.413 42.9093 41.1612 41.1612C42.9093 39.413 45.1366 38.2225 47.5614 37.7402C49.9861 37.2579 52.4995 37.5054 54.7835 38.4515C57.0676 39.3976 59.0199 40.9998 60.3934 43.0554C61.7669 45.111 62.5 47.5277 62.5 50C62.4974 53.3144 61.1796 56.4923 58.836 58.836C56.4923 61.1796 53.3144 62.4974 50 62.5ZM75.0117 61.9394V55.6445C75.012 55.473 74.9784 55.3032 74.913 55.1446C74.8475 54.9861 74.7515 54.8421 74.6303 54.7207C74.5091 54.5994 74.3652 54.5031 74.2068 54.4374C74.0484 54.3717 73.8785 54.3379 73.707 54.3379H64.4649C65.3242 51.5045 65.3242 48.4799 64.4649 45.6465H73.7051C73.8766 45.6465 74.0464 45.6127 74.2048 45.547C74.3632 45.4813 74.5072 45.385 74.6283 45.2637C74.7495 45.1423 74.8456 44.9982 74.911 44.8397C74.9765 44.6812 75.01 44.5113 75.0098 44.3398V38.0527L86.9492 50L75.0117 61.9394Z" stroke="url(#paint3_linear_29_264)" stroke-width="3" mask="url(#path-2-outside-1_29_264)"/>
<defs>
<linearGradient id="paint0_linear_29_264" x1="50" y1="40.9102" x2="50" y2="59.0742" gradientUnits="userSpaceOnUse">
<stop stop-color="#5454E8"/>
<stop offset="1" stop-color="#D3DEFF"/>
</linearGradient>
<linearGradient id="paint1_linear_29_264" x1="50" y1="40.9102" x2="50" y2="59.0742" gradientUnits="userSpaceOnUse">
<stop stop-color="#5454E8"/>
<stop offset="1" stop-color="#D3DEFF"/>
</linearGradient>
<linearGradient id="paint2_linear_29_264" x1="50.0029" y1="9.9052" x2="50.0029" y2="90.0953" gradientUnits="userSpaceOnUse">
<stop stop-color="#5454E8"/>
<stop offset="1" stop-color="#D3DEFF"/>
</linearGradient>
<linearGradient id="paint3_linear_29_264" x1="50.0029" y1="9.9052" x2="50.0029" y2="90.0953" gradientUnits="userSpaceOnUse">
<stop stop-color="#5454E8"/>
<stop offset="1" stop-color="#D3DEFF"/>
</linearGradient>
</defs>
</svg>
