<svg width="63" height="53" viewBox="0 0 63 53" fill="none" xmlns="http://www.w3.org/2000/svg">
<path d="M8.19139 9.96524C-5.67325 21.8214 5.59179 37.1529 23.7891 36.3947C27.2523 36.2504 29.1178 36.1736 31.4797 37.1529M8.19139 9.96524C12.6324 6.16755 15.5849 4.35919 21.0812 3.14123M8.19139 9.96524C1.80066 18.1974 49.5687 20.8025 31.4797 37.1529M21.0812 3.14123C27.6885 13.8646 33.3629 11.2599 45.4526 18.1974M21.0812 3.14123C25.8145 2.09233 33.3498 1.83511 40.2533 3.79112C47.4099 5.81883 53.9038 10.1312 56.8259 12.9981C62.361 18.4288 61.3077 26.6508 59.5266 30.7622M59.5266 30.7622C57.9134 34.4862 54.5483 36.3947 50.3269 36.3947C40.814 36.3947 53.4681 45.71 47.7272 50.476C43.8904 53.6613 41.5284 41.3197 31.4797 37.1529M59.5266 30.7622C57.4565 26.0024 49.735 20.6547 45.4526 18.1974M31.4797 37.1529C49.4603 38.886 54.0097 23.3937 45.4526 18.1974" stroke="#D3DEFF" stroke-width="3.03289"/>
<circle cx="6.5667" cy="11.1567" r="2.27467" fill="#3655B3" stroke="#D3DEFF" stroke-width="2.16635"/>
<circle cx="21.7311" cy="3.35784" r="2.27467" fill="#3655B3" stroke="#D3DEFF" stroke-width="2.16635"/>
<circle cx="59.6421" cy="30.004" r="2.27467" fill="#3655B3" stroke="#D3DEFF" stroke-width="2.16635"/>
<circle cx="48.5937" cy="20.472" r="2.27467" fill="#3655B3" stroke="#D3DEFF" stroke-width="2.16635"/>
<circle cx="32.3462" cy="37.3696" r="2.27467" fill="#3655B3" stroke="#D3DEFF" stroke-width="2.16635"/>
<circle cx="7.21654" cy="31.5203" r="2.27467" fill="#3655B3" stroke="#D3DEFF" stroke-width="2.16635"/>
</svg>
