<svg width="216" height="216" viewBox="0 0 216 216" fill="none" xmlns="http://www.w3.org/2000/svg">
<path d="M184.23 66.33C184.23 66.33 184.23 66.33 184.23 65.61L183.69 64.26C183.502 63.9736 183.291 63.7027 183.06 63.45C182.819 63.069 182.548 62.7079 182.25 62.37L181.44 61.74L180 61.02L112.5 19.35C111.069 18.456 109.417 17.982 107.73 17.982C106.043 17.982 104.39 18.456 102.96 19.35L35.9998 61.02L35.1898 61.74L34.3798 62.37C34.0815 62.7079 33.8106 63.069 33.5698 63.45C33.3385 63.7027 33.1278 63.9736 32.9398 64.26L32.3998 65.61C32.3998 65.61 32.3998 65.61 32.3998 66.33C32.3114 67.1075 32.3114 67.8925 32.3998 68.67V147.33C32.3968 148.86 32.7836 150.365 33.5237 151.703C34.2638 153.042 35.3328 154.169 36.6298 154.98L104.13 196.65C104.545 196.907 105.002 197.089 105.48 197.19C105.48 197.19 105.93 197.19 106.2 197.19C107.722 197.673 109.357 197.673 110.88 197.19C110.88 197.19 111.33 197.19 111.6 197.19C112.078 197.089 112.534 196.907 112.95 196.65L180 154.98C181.297 154.169 182.366 153.042 183.106 151.703C183.846 150.365 184.233 148.86 184.23 147.33V68.67C184.318 67.8925 184.318 67.1075 184.23 66.33ZM98.9998 172.89L49.4998 142.29V84.87L98.9998 115.38V172.89ZM108 99.81L57.5998 68.67L108 37.62L158.4 68.67L108 99.81ZM166.5 142.29L117 172.89V115.38L166.5 84.87V142.29Z" fill="#D3DEFF"/>
</svg>
