<svg width="60" height="60" viewBox="0 0 60 60" fill="none" xmlns="http://www.w3.org/2000/svg">
<path fill-rule="evenodd" clip-rule="evenodd" d="M3.125 7.5C3.125 3.70305 6.20305 0.625 10 0.625H35C38.797 0.625 41.875 3.70305 41.875 7.5V26.25C41.875 27.2855 41.0355 28.125 40 28.125C38.9645 28.125 38.125 27.2855 38.125 26.25V7.5C38.125 5.7741 36.726 4.375 35 4.375H10C8.2741 4.375 6.875 5.7741 6.875 7.5V52.5C6.875 54.226 8.2741 55.625 10 55.625H30C31.0355 55.625 31.875 56.4645 31.875 57.5C31.875 58.5355 31.0355 59.375 30 59.375H10C6.20305 59.375 3.125 56.297 3.125 52.5V7.5Z" fill="#D3DEFF"/>
<path fill-rule="evenodd" clip-rule="evenodd" d="M10.905 1.51425C11.2467 0.961472 11.8502 0.625 12.5 0.625H32.5C33.1498 0.625 33.7533 0.961472 34.095 1.51425C34.4365 2.06703 34.4678 2.7573 34.177 3.33853L32.368 6.95655C31.627 8.43875 30.112 9.375 28.455 9.375H16.5451C14.888 9.375 13.3731 8.43875 12.632 6.95655L10.823 3.33853C10.5323 2.7573 10.5634 2.06703 10.905 1.51425ZM15.5338 4.375L15.9861 5.2795C16.092 5.49125 16.3084 5.625 16.5451 5.625H28.455C28.6918 5.625 28.908 5.49125 29.014 5.2795L29.4663 4.375H15.5338Z" fill="#D3DEFF"/>
<path fill-rule="evenodd" clip-rule="evenodd" d="M15.625 50C15.625 48.9645 16.4645 48.125 17.5 48.125H27.5C28.5355 48.125 29.375 48.9645 29.375 50C29.375 51.0355 28.5355 51.875 27.5 51.875H17.5C16.4645 51.875 15.625 51.0355 15.625 50Z" fill="#D3DEFF"/>
<path fill-rule="evenodd" clip-rule="evenodd" d="M41.25 34.375C37.453 34.375 34.375 37.453 34.375 41.25C34.375 45.047 37.453 48.125 41.25 48.125C45.047 48.125 48.125 45.047 48.125 41.25C48.125 37.453 45.047 34.375 41.25 34.375ZM30.625 41.25C30.625 35.382 35.382 30.625 41.25 30.625C47.118 30.625 51.875 35.382 51.875 41.25C51.875 47.118 47.118 51.875 41.25 51.875C35.382 51.875 30.625 47.118 30.625 41.25Z" fill="#D3DEFF"/>
<path fill-rule="evenodd" clip-rule="evenodd" d="M46.2798 47.3265C47.066 46.6525 48.2498 46.7435 48.9235 47.5298L56.4235 56.2798C57.0975 57.066 57.0065 58.2498 56.2203 58.9238C55.434 59.5975 54.2503 59.5065 53.5765 58.7203L46.0765 49.9703C45.4025 49.184 45.4935 48.0003 46.2798 47.3265Z" fill="#D3DEFF"/>
</svg>
