<?xml version="1.0" ?><svg fill="none" height="24" viewBox="0 0 24 24" width="24" xmlns="http://www.w3.org/2000/svg"><g id="Search"><path clip-rule="evenodd" d="M1.25 3C1.25 1.48122 2.48122 0.25 4 0.25H14C15.5188 0.25 16.75 1.48122 16.75 3V10.5C16.75 10.9142 16.4142 11.25 16 11.25C15.5858 11.25 15.25 10.9142 15.25 10.5V3C15.25 2.30964 14.6904 1.75 14 1.75H4C3.30964 1.75 2.75 2.30964 2.75 3V21C2.75 21.6904 3.30964 22.25 4 22.25H12C12.4142 22.25 12.75 22.5858 12.75 23C12.75 23.4142 12.4142 23.75 12 23.75H4C2.48122 23.75 1.25 22.5188 1.25 21V3Z" fill="black" fill-rule="evenodd" id="Rectangle 34 (Stroke)"/><path clip-rule="evenodd" d="M4.36201 0.605702C4.49867 0.384589 4.74007 0.25 5 0.25H13C13.2599 0.25 13.5013 0.384589 13.638 0.605702C13.7746 0.826814 13.7871 1.10292 13.6708 1.33541L12.9472 2.78262C12.6508 3.3755 12.0448 3.75 11.382 3.75H6.61803C5.95518 3.75 5.34922 3.3755 5.05279 2.78262L4.32918 1.33541C4.21293 1.10292 4.22536 0.826814 4.36201 0.605702ZM6.21353 1.75L6.39443 2.1118C6.43678 2.1965 6.52334 2.25 6.61803 2.25H11.382C11.4767 2.25 11.5632 2.1965 11.6056 2.1118L11.7865 1.75H6.21353Z" fill="black" fill-rule="evenodd" id="Rectangle 35 (Stroke)"/><path clip-rule="evenodd" d="M6.25 20C6.25 19.5858 6.58579 19.25 7 19.25H11C11.4142 19.25 11.75 19.5858 11.75 20C11.75 20.4142 11.4142 20.75 11 20.75H7C6.58579 20.75 6.25 20.4142 6.25 20Z" fill="black" fill-rule="evenodd" id="Vector 51 (Stroke)"/><path clip-rule="evenodd" d="M16.5 13.75C14.9812 13.75 13.75 14.9812 13.75 16.5C13.75 18.0188 14.9812 19.25 16.5 19.25C18.0188 19.25 19.25 18.0188 19.25 16.5C19.25 14.9812 18.0188 13.75 16.5 13.75ZM12.25 16.5C12.25 14.1528 14.1528 12.25 16.5 12.25C18.8472 12.25 20.75 14.1528 20.75 16.5C20.75 18.8472 18.8472 20.75 16.5 20.75C14.1528 20.75 12.25 18.8472 12.25 16.5Z" fill="black" fill-rule="evenodd" id="Ellipse 17 (Stroke)"/><path clip-rule="evenodd" d="M18.5119 18.9306C18.8264 18.661 19.2999 18.6974 19.5694 19.0119L22.5694 22.5119C22.839 22.8264 22.8026 23.2999 22.4881 23.5695C22.1736 23.839 21.7001 23.8026 21.4306 23.4881L18.4306 19.9881C18.161 19.6736 18.1974 19.2001 18.5119 18.9306Z" fill="black" fill-rule="evenodd" id="Vector 52 (Stroke)"/></g></svg>